ISO-10303-21;
HEADER;
FILE_DESCRIPTION (( 'STEP AP214' ),
    '1' );
FILE_NAME ('Speaker_20x14x3_Motorola L6.STEP',
    '2026-05-03T10:23:05',
    ( 'Elessar' ),
    ( '' ),
    'SwSTEP 2.0',
    'SolidWorks 2018',
    '' );
FILE_SCHEMA (( 'AUTOMOTIVE_DESIGN' ));
ENDSEC;

DATA;
#1 = SURFACE_STYLE_USAGE ( .BOTH. , #344 ) ;
#2 = AXIS2_PLACEMENT_3D ( 'NONE', #1027, #511, #422 ) ;
#3 = PRESENTATION_STYLE_ASSIGNMENT (( #735 ) ) ;
#4 = SURFACE_SIDE_STYLE ('',( #824 ) ) ;
#5 = VECTOR ( 'NONE', #834, 1000.000000000000000 ) ;
#6 = ORIENTED_EDGE ( 'NONE', *, *, #63, .F. ) ;
#7 = EDGE_CURVE ( 'NONE', #628, #70, #839, .T. ) ;
#8 =( LENGTH_UNIT ( ) NAMED_UNIT ( * ) SI_UNIT ( .MILLI., .METRE. ) );
#9 = PLANE ( 'NONE',  #935 ) ;
#10 = STYLED_ITEM ( 'NONE', ( #537 ), #27 ) ;
#11 = DIRECTION ( 'NONE',  ( 1.000000000000000000, -0.0000000000000000000, -0.0000000000000000000 ) ) ;
#12 = VECTOR ( 'NONE', #88, 1000.000000000000000 ) ;
#13 = CARTESIAN_POINT ( 'NONE',  ( -3.000000000000000000, -5.249999999999999112, 3.000000000000000000 ) ) ;
#14 = PRESENTATION_STYLE_ASSIGNMENT (( #497 ) ) ;
#15 = EDGE_CURVE ( 'NONE', #210, #135, #121, .T. ) ;
#16 = VECTOR ( 'NONE', #124, 1000.000000000000000 ) ;
#17 = ORIENTED_EDGE ( 'NONE', *, *, #155, .T. ) ;
#18 = EDGE_LOOP ( 'NONE', ( #194, #462, #1036, #222 ) ) ;
#19 = SURFACE_STYLE_USAGE ( .BOTH. , #530 ) ;
#20 = DIRECTION ( 'NONE',  ( 0.0000000000000000000, 1.000000000000000000, 0.0000000000000000000 ) ) ;
#21 = MECHANICAL_DESIGN_GEOMETRIC_PRESENTATION_REPRESENTATION (  '', ( #318 ), #501 ) ;
#22 = FACE_OUTER_BOUND ( 'NONE', #57, .T. ) ;
#23 = CARTESIAN_POINT ( 'NONE',  ( -7.200000000000001954, 3.750000000000000000, 0.6000000000000000888 ) ) ;
#24 = DIRECTION ( 'NONE',  ( 0.0000000000000000000, -0.0000000000000000000, 1.000000000000000000 ) ) ;
#25 = CARTESIAN_POINT ( 'NONE',  ( -5.299999999999999822, 0.0000000000000000000, 0.8000000000000000444 ) ) ;
#26 = EDGE_CURVE ( 'NONE', #59, #852, #29, .T. ) ;
#27 = ADVANCED_FACE ( 'NONE', ( #859 ), #301, .T. ) ;
#28 = CARTESIAN_POINT ( 'NONE',  ( -7.200000000000001954, -3.750000000000000000, 0.8000000000000000444 ) ) ;
#29 = LINE ( 'NONE', #158, #402 ) ;
#30 = ORIENTED_EDGE ( 'NONE', *, *, #527, .T. ) ;
#31 = CARTESIAN_POINT ( 'NONE',  ( 0.0000000000000000000, 0.0000000000000000000, 0.0000000000000000000 ) ) ;
#32 = EDGE_CURVE ( 'NONE', #96, #248, #277, .T. ) ;
#33 = PRESENTATION_STYLE_ASSIGNMENT (( #1 ) ) ;
#34 = MECHANICAL_DESIGN_GEOMETRIC_PRESENTATION_REPRESENTATION (  '', ( #761 ), #746 ) ;
#35 = VECTOR ( 'NONE', #914, 1000.000000000000000 ) ;
#36 = CARTESIAN_POINT ( 'NONE',  ( -9.700000000000002842, -3.750000000000000000, 0.8000000000000000444 ) ) ;
#37 = CARTESIAN_POINT ( 'NONE',  ( 3.000000000000000444, -7.000000000000000000, 30.41311123146741124 ) ) ;
#38 = LINE ( 'NONE', #339, #1060 ) ;
#39 = CARTESIAN_POINT ( 'NONE',  ( -3.000000000000000000, -5.249999999999999112, 2.500000000000000000 ) ) ;
#40 = CARTESIAN_POINT ( 'NONE',  ( 0.0000000000000000000, 0.0000000000000000000, 0.8000000000000000444 ) ) ;
#41 = ORIENTED_EDGE ( 'NONE', *, *, #90, .T. ) ;
#42 = MECHANICAL_DESIGN_GEOMETRIC_PRESENTATION_REPRESENTATION (  '', ( #465 ), #98 ) ;
#43 = VERTEX_POINT ( 'NONE', #745 ) ;
#44 = DIRECTION ( 'NONE',  ( 1.000000000000000000, 0.0000000000000000000, -0.0000000000000000000 ) ) ;
#45 = ADVANCED_FACE ( 'NONE', ( #1065 ), #312, .F. ) ;
#46 = DIRECTION ( 'NONE',  ( -1.000000000000000000, 0.0000000000000000000, 0.0000000000000000000 ) ) ;
#47 =( NAMED_UNIT ( * ) SI_UNIT ( $, .STERADIAN. ) SOLID_ANGLE_UNIT ( ) );
#48 = VECTOR ( 'NONE', #771, 1000.000000000000000 ) ;
#49 = CARTESIAN_POINT ( 'NONE',  ( -8.709422037299397346, -4.049999999999999822, 2.200000000000000622 ) ) ;
#50 = EDGE_CURVE ( 'NONE', #238, #1086, #444, .T. ) ;
#51 =( NAMED_UNIT ( * ) PLANE_ANGLE_UNIT ( ) SI_UNIT ( $, .RADIAN. ) );
#52 = AXIS2_PLACEMENT_3D ( 'NONE', #605, #433, #99 ) ;
#53 = DIRECTION ( 'NONE',  ( 0.0000000000000000000, -1.000000000000000000, -0.0000000000000000000 ) ) ;
#54 =( NAMED_UNIT ( * ) PLANE_ANGLE_UNIT ( ) SI_UNIT ( $, .RADIAN. ) );
#55 = LINE ( 'NONE', #737, #615 ) ;
#56 = VECTOR ( 'NONE', #994, 1000.000000000000000 ) ;
#57 = EDGE_LOOP ( 'NONE', ( #791, #862, #187, #525, #999, #500 ) ) ;
#58 = PRESENTATION_LAYER_ASSIGNMENT (  '', '', ( #613 ) ) ;
#59 = VERTEX_POINT ( 'NONE', #220 ) ;
#60 = DIRECTION ( 'NONE',  ( 1.000000000000000000, 0.0000000000000000000, 0.0000000000000000000 ) ) ;
#61 = EDGE_CURVE ( 'NONE', #245, #590, #599, .T. ) ;
#62 = VECTOR ( 'NONE', #335, 1000.000000000000000 ) ;
#63 = EDGE_CURVE ( 'NONE', #1035, #184, #488, .T. ) ;
#64 = VECTOR ( 'NONE', #298, 1000.000000000000000 ) ;
#65 = VECTOR ( 'NONE', #60, 1000.000000000000000 ) ;
#66 =( NAMED_UNIT ( * ) PLANE_ANGLE_UNIT ( ) SI_UNIT ( $, .RADIAN. ) );
#67 = FACE_OUTER_BOUND ( 'NONE', #1011, .T. ) ;
#68 = DIRECTION ( 'NONE',  ( 0.0000000000000000000, 0.0000000000000000000, 1.000000000000000000 ) ) ;
#69 = ORIENTED_EDGE ( 'NONE', *, *, #543, .T. ) ;
#70 = VERTEX_POINT ( 'NONE', #382 ) ;
#71 = EDGE_CURVE ( 'NONE', #404, #147, #55, .T. ) ;
#72 = ORIENTED_EDGE ( 'NONE', *, *, #125, .F. ) ;
#73 = AXIS2_PLACEMENT_3D ( 'NONE', #815, #1010, #678 ) ;
#74 = DIRECTION ( 'NONE',  ( -0.0000000000000000000, -0.0000000000000000000, 1.000000000000000000 ) ) ;
#75 = CIRCLE ( 'NONE', #411, 7.000000000000000000 ) ;
#76 = FACE_OUTER_BOUND ( 'NONE', #600, .T. ) ;
#77 = PRESENTATION_LAYER_ASSIGNMENT (  '', '', ( #483 ) ) ;
#78 = LINE ( 'NONE', #139, #668 ) ;
#79 = CARTESIAN_POINT ( 'NONE',  ( 0.0000000000000000000, 0.0000000000000000000, 0.8000000000000000444 ) ) ;
#80 = DIRECTION ( 'NONE',  ( -0.0000000000000000000, -0.0000000000000000000, -1.000000000000000000 ) ) ;
#81 = CARTESIAN_POINT ( 'NONE',  ( 8.250000000000000000, 0.0000000000000000000, 2.500000000000000000 ) ) ;
#82 = DIRECTION ( 'NONE',  ( 1.000000000000000000, -0.0000000000000000000, 0.0000000000000000000 ) ) ;
#83 = ORIENTED_EDGE ( 'NONE', *, *, #308, .T. ) ;
#84 = EDGE_CURVE ( 'NONE', #602, #70, #343, .T. ) ;
#85 = FILL_AREA_STYLE_COLOUR ( '', #573 ) ;
#86 = VECTOR ( 'NONE', #961, 1000.000000000000000 ) ;
#87 = UNCERTAINTY_MEASURE_WITH_UNIT (LENGTH_MEASURE( 1.000000000000000082E-05 ), #997, 'distance_accuracy_value', 'NONE');
#88 = DIRECTION ( 'NONE',  ( -0.0000000000000000000, -0.0000000000000000000, 1.000000000000000000 ) ) ;
#89 = CARTESIAN_POINT ( 'NONE',  ( 2.999999999999998668, 7.000000000000000000, 30.41311123146741124 ) ) ;
#90 = EDGE_CURVE ( 'NONE', #852, #730, #848, .T. ) ;
#91 = CARTESIAN_POINT ( 'NONE',  ( -3.000000000000000000, -5.249999999999999112, 3.000000000000000000 ) ) ;
#92 = LINE ( 'NONE', #828, #1044 ) ;
#93 = STYLED_ITEM ( 'NONE', ( #395 ), #816 ) ;
#94 = DIRECTION ( 'NONE',  ( -1.000000000000000000, -1.445602896647339410E-16, 0.0000000000000000000 ) ) ;
#95 = DIRECTION ( 'NONE',  ( 0.0000000000000000000, 0.0000000000000000000, 1.000000000000000000 ) ) ;
#96 = VERTEX_POINT ( 'NONE', #150 ) ;
#97 = EDGE_LOOP ( 'NONE', ( #795, #912, #1014, #133, #1051, #702, #289, #287 ) ) ;
#98 =( GEOMETRIC_REPRESENTATION_CONTEXT ( 3 ) GLOBAL_UNCERTAINTY_ASSIGNED_CONTEXT ( ( #556 ) ) GLOBAL_UNIT_ASSIGNED_CONTEXT ( ( #1006, #320, #394 ) ) REPRESENTATION_CONTEXT ( 'NONE', 'WORKASPACE' ) );
#99 = DIRECTION ( 'NONE',  ( 0.0000000000000000000, -0.0000000000000000000, -1.000000000000000000 ) ) ;
#100 = DIRECTION ( 'NONE',  ( 0.0000000000000000000, 0.0000000000000000000, 1.000000000000000000 ) ) ;
#101 = VECTOR ( 'NONE', #197, 1000.000000000000000 ) ;
#102 = EDGE_CURVE ( 'NONE', #714, #1103, #1009, .T. ) ;
#103 = CARTESIAN_POINT ( 'NONE',  ( -10.00000000000000178, 4.049999999999999822, 2.200000000000000622 ) ) ;
#104 = PRESENTATION_LAYER_ASSIGNMENT (  '', '', ( #1096 ) ) ;
#105 = ORIENTED_EDGE ( 'NONE', *, *, #646, .F. ) ;
#106 = ORIENTED_EDGE ( 'NONE', *, *, #952, .T. ) ;
#107 = VERTEX_POINT ( 'NONE', #925 ) ;
#108 = ADVANCED_FACE ( 'NONE', ( #412 ), #313, .F. ) ;
#109 = EDGE_CURVE ( 'NONE', #790, #147, #257, .T. ) ;
#110 = SURFACE_STYLE_FILL_AREA ( #889 ) ;
#111 = CARTESIAN_POINT ( 'NONE',  ( -7.200000000000001954, -1.249999999999999334, 0.6000000000000000888 ) ) ;
#112 = AXIS2_PLACEMENT_3D ( 'NONE', #324, #1023, #276 ) ;
#113 = VECTOR ( 'NONE', #338, 1000.000000000000000 ) ;
#114 = DIRECTION ( 'NONE',  ( 1.000000000000000000, 0.0000000000000000000, 0.0000000000000000000 ) ) ;
#115 = ADVANCED_FACE ( 'NONE', ( #67 ), #949, .T. ) ;
#116 = CIRCLE ( 'NONE', #218, 5.250000000000000000 ) ;
#117 = DIRECTION ( 'NONE',  ( 1.000000000000000000, 0.0000000000000000000, 0.0000000000000000000 ) ) ;
#118 = DIRECTION ( 'NONE',  ( 0.0000000000000000000, 1.000000000000000000, 0.0000000000000000000 ) ) ;
#119 = EDGE_CURVE ( 'NONE', #403, #135, #980, .T. ) ;
#120 = ADVANCED_BREP_SHAPE_REPRESENTATION ( 'Speaker_20x14x3_Motorola L6', ( #614, #73 ), #176 ) ;
#121 = CIRCLE ( 'NONE', #1066, 7.000000000000000000 ) ;
#122 = ORIENTED_EDGE ( 'NONE', *, *, #410, .F. ) ;
#123 = EDGE_LOOP ( 'NONE', ( #1082, #619, #632 ) ) ;
#124 = DIRECTION ( 'NONE',  ( -0.0000000000000000000, -0.0000000000000000000, 1.000000000000000000 ) ) ;
#125 = EDGE_CURVE ( 'NONE', #648, #1104, #951, .T. ) ;
#126 = PLANE ( 'NONE',  #200 ) ;
#127 = CARTESIAN_POINT ( 'NONE',  ( -3.000000000000000000, 5.249999999999999112, 2.500000000000000000 ) ) ;
#128 = CARTESIAN_POINT ( 'NONE',  ( 2.999999999999998668, 7.000000000000000000, 0.8000000000000000444 ) ) ;
#129 = VECTOR ( 'NONE', #351, 1000.000000000000000 ) ;
#130 = CARTESIAN_POINT ( 'NONE',  ( 3.000000000000000000, 0.0000000000000000000, 2.500000000000000000 ) ) ;
#131 = MECHANICAL_DESIGN_GEOMETRIC_PRESENTATION_REPRESENTATION (  '', ( #613 ), #345 ) ;
#132 = PLANE ( 'NONE',  #437 ) ;
#133 = ORIENTED_EDGE ( 'NONE', *, *, #119, .T. ) ;
#134 = DIRECTION ( 'NONE',  ( -0.0000000000000000000, -0.0000000000000000000, 1.000000000000000000 ) ) ;
#135 = VERTEX_POINT ( 'NONE', #466 ) ;
#136 = ORIENTED_EDGE ( 'NONE', *, *, #495, .F. ) ;
#137 = PRODUCT_DEFINITION_SHAPE ( 'NONE', 'NONE',  #477 ) ;
#138 = CARTESIAN_POINT ( 'NONE',  ( -3.000000000000000888, -1.819535758525432752E-15, 30.41311123146741124 ) ) ;
#139 = CARTESIAN_POINT ( 'NONE',  ( -9.700000000000002842, 1.249999999999999334, 0.6000000000000000888 ) ) ;
#140 = CARTESIAN_POINT ( 'NONE',  ( -7.200000000000001954, 1.249999999999999334, 0.8000000000000000444 ) ) ;
#141 = EDGE_CURVE ( 'NONE', #1035, #767, #470, .T. ) ;
#142 = CARTESIAN_POINT ( 'NONE',  ( 8.250000000000000000, 0.0000000000000000000, 2.500000000000000000 ) ) ;
#143 = SURFACE_SIDE_STYLE ('',( #1026 ) ) ;
#144 = PLANE ( 'NONE',  #162 ) ;
#145 = DIRECTION ( 'NONE',  ( -0.0000000000000000000, -0.0000000000000000000, -1.000000000000000000 ) ) ;
#146 = VECTOR ( 'NONE', #341, 1000.000000000000000 ) ;
#147 = VERTEX_POINT ( 'NONE', #804 ) ;
#148 = STYLED_ITEM ( 'NONE', ( #932 ), #120 ) ;
#149 = CIRCLE ( 'NONE', #692, 5.250000000000000000 ) ;
#150 = CARTESIAN_POINT ( 'NONE',  ( -7.200000000000001954, 1.249999999999999334, 0.8000000000000000444 ) ) ;
#151 = PRODUCT_CONTEXT ( 'NONE', #979, 'mechanical' ) ;
#152 = COLOUR_RGB ( '',0.8823529411764705621, 0.9176470588235293713, 0.4901960784313725283 ) ;
#153 = ORIENTED_EDGE ( 'NONE', *, *, #684, .T. ) ;
#154 = VERTEX_POINT ( 'NONE', #28 ) ;
#155 = EDGE_CURVE ( 'NONE', #219, #1038, #231, .T. ) ;
#156 = EDGE_LOOP ( 'NONE', ( #604, #183, #478, #651 ) ) ;
#157 = AXIS2_PLACEMENT_3D ( 'NONE', #418, #754, #1021 ) ;
#158 = CARTESIAN_POINT ( 'NONE',  ( -3.000000000000000000, 5.249999999999999112, 3.000000000000000000 ) ) ;
#159 = LINE ( 'NONE', #498, #406 ) ;
#160 = DIRECTION ( 'NONE',  ( 1.000000000000000000, 1.445602896647339410E-16, 0.0000000000000000000 ) ) ;
#161 = SURFACE_STYLE_USAGE ( .BOTH. , #4 ) ;
#162 = AXIS2_PLACEMENT_3D ( 'NONE', #384, #319, #750 ) ;
#163 = CARTESIAN_POINT ( 'NONE',  ( 3.000000000000000444, -7.000000000000000000, 30.41311123146741124 ) ) ;
#164 = VECTOR ( 'NONE', #916, 1000.000000000000000 ) ;
#165 = DIRECTION ( 'NONE',  ( -0.0000000000000000000, -0.0000000000000000000, -1.000000000000000000 ) ) ;
#166 = ORIENTED_EDGE ( 'NONE', *, *, #7, .F. ) ;
#167 = EDGE_LOOP ( 'NONE', ( #224, #346, #373, #17 ) ) ;
#168 = EDGE_CURVE ( 'NONE', #1086, #219, #486, .T. ) ;
#169 = FILL_AREA_STYLE_COLOUR ( '', #1098 ) ;
#170 = DIRECTION ( 'NONE',  ( 1.000000000000000000, 0.0000000000000000000, -0.0000000000000000000 ) ) ;
#171 = SURFACE_STYLE_FILL_AREA ( #865 ) ;
#172 = FACE_BOUND ( 'NONE', #347, .T. ) ;
#173 = ADVANCED_FACE ( 'NONE', ( #273 ), #144, .F. ) ;
#174 = EDGE_CURVE ( 'NONE', #236, #358, #356, .T. ) ;
#175 = DIRECTION ( 'NONE',  ( -0.0000000000000000000, -0.0000000000000000000, 1.000000000000000000 ) ) ;
#176 =( GEOMETRIC_REPRESENTATION_CONTEXT ( 3 ) GLOBAL_UNCERTAINTY_ASSIGNED_CONTEXT ( ( #954 ) ) GLOBAL_UNIT_ASSIGNED_CONTEXT ( ( #463, #380, #47 ) ) REPRESENTATION_CONTEXT ( 'NONE', 'WORKASPACE' ) );
#177 = LINE ( 'NONE', #1049, #870 ) ;
#178 = VECTOR ( 'NONE', #814, 1000.000000000000000 ) ;
#179 = CARTESIAN_POINT ( 'NONE',  ( -10.00000000000000178, 4.049999999999999822, 11.20216992495330111 ) ) ;
#180 = SURFACE_STYLE_USAGE ( .BOTH. , #786 ) ;
#181 =( LENGTH_UNIT ( ) NAMED_UNIT ( * ) SI_UNIT ( .MILLI., .METRE. ) );
#182 = VECTOR ( 'NONE', #145, 1000.000000000000000 ) ;
#183 = ORIENTED_EDGE ( 'NONE', *, *, #837, .T. ) ;
#184 = VERTEX_POINT ( 'NONE', #507 ) ;
#185 = ORIENTED_EDGE ( 'NONE', *, *, #1032, .F. ) ;
#186 = CARTESIAN_POINT ( 'NONE',  ( -8.709422037299397346, 4.049999999999999822, 11.20216992495330111 ) ) ;
#187 = ORIENTED_EDGE ( 'NONE', *, *, #874, .T. ) ;
#188 = CIRCLE ( 'NONE', #780, 7.000000000000000000 ) ;
#189 = CARTESIAN_POINT ( 'NONE',  ( 3.000000000000000000, 0.0000000000000000000, 3.000000000000000000 ) ) ;
#190 = DIRECTION ( 'NONE',  ( 0.0000000000000000000, 0.0000000000000000000, -1.000000000000000000 ) ) ;
#191 = EDGE_CURVE ( 'NONE', #1103, #236, #699, .T. ) ;
#192 = ADVANCED_FACE ( 'NONE', ( #385 ), #705, .T. ) ;
#193 = DIRECTION ( 'NONE',  ( 1.000000000000000000, 0.0000000000000000000, 0.0000000000000000000 ) ) ;
#194 = ORIENTED_EDGE ( 'NONE', *, *, #1090, .F. ) ;
#195 = ORIENTED_EDGE ( 'NONE', *, *, #84, .F. ) ;
#196 = EDGE_LOOP ( 'NONE', ( #106, #526, #330, #575 ) ) ;
#197 = DIRECTION ( 'NONE',  ( 0.0000000000000000000, 0.0000000000000000000, -1.000000000000000000 ) ) ;
#198 = CARTESIAN_POINT ( 'NONE',  ( -2.999999999999998668, -7.000000000000000888, 0.8000000000000000444 ) ) ;
#199 = SURFACE_STYLE_FILL_AREA ( #913 ) ;
#200 = AXIS2_PLACEMENT_3D ( 'NONE', #37, #479, #1064 ) ;
#201 = CARTESIAN_POINT ( 'NONE',  ( -3.000000000000000000, 0.0000000000000000000, 2.500000000000000000 ) ) ;
#202 = FILL_AREA_STYLE ('',( #464 ) ) ;
#203 = FACE_OUTER_BOUND ( 'NONE', #449, .T. ) ;
#204 = ADVANCED_FACE ( 'NONE', ( #469 ), #1031, .T. ) ;
#205 = SURFACE_STYLE_FILL_AREA ( #369 ) ;
#206 = CARTESIAN_POINT ( 'NONE',  ( -7.200000000000001954, -3.750000000000000000, 0.6000000000000000888 ) ) ;
#207 =( NAMED_UNIT ( * ) PLANE_ANGLE_UNIT ( ) SI_UNIT ( $, .RADIAN. ) );
#208 = AXIS2_PLACEMENT_3D ( 'NONE', #938, #596, #419 ) ;
#209 = VECTOR ( 'NONE', #1069, 1000.000000000000000 ) ;
#210 = VERTEX_POINT ( 'NONE', #1078 ) ;
#211 = UNCERTAINTY_MEASURE_WITH_UNIT (LENGTH_MEASURE( 1.000000000000000082E-05 ), #616, 'distance_accuracy_value', 'NONE');
#212 = CARTESIAN_POINT ( 'NONE',  ( -9.700000000000002842, 1.249999999999999334, 0.6000000000000000888 ) ) ;
#213 = EDGE_CURVE ( 'NONE', #307, #472, #1020, .T. ) ;
#214 = LINE ( 'NONE', #425, #420 ) ;
#215 = CARTESIAN_POINT ( 'NONE',  ( -3.000000000000000000, 5.249999999999999112, 2.500000000000000000 ) ) ;
#216 = COLOUR_RGB ( '',0.3333333333333333148, 0.3333333333333333148, 0.3333333333333333148 ) ;
#217 = DIRECTION ( 'NONE',  ( 1.000000000000000000, 0.0000000000000000000, 0.0000000000000000000 ) ) ;
#218 = AXIS2_PLACEMENT_3D ( 'NONE', #785, #251, #354 ) ;
#219 = VERTEX_POINT ( 'NONE', #295 ) ;
#220 = CARTESIAN_POINT ( 'NONE',  ( 3.000000000000000000, 5.249999999999999112, 3.000000000000000000 ) ) ;
#221 = ORIENTED_EDGE ( 'NONE', *, *, #232, .F. ) ;
#222 = ORIENTED_EDGE ( 'NONE', *, *, #837, .F. ) ;
#223 = SURFACE_SIDE_STYLE ('',( #548 ) ) ;
#224 = ORIENTED_EDGE ( 'NONE', *, *, #707, .T. ) ;
#225 = FACE_BOUND ( 'NONE', #968, .T. ) ;
#226 = ADVANCED_FACE ( 'NONE', ( #371 ), #669, .F. ) ;
#227 = CARTESIAN_POINT ( 'NONE',  ( -7.200000000000001954, 3.750000000000000000, 0.6000000000000000888 ) ) ;
#228 = EDGE_CURVE ( 'NONE', #628, #147, #1079, .T. ) ;
#229 = COLOUR_RGB ( '',0.8823529411764705621, 0.9176470588235293713, 0.4901960784313725283 ) ;
#230 = CARTESIAN_POINT ( 'NONE',  ( -3.000000000000000000, 5.249999999999999112, 3.000000000000000000 ) ) ;
#231 = LINE ( 'NONE', #975, #164 ) ;
#232 = EDGE_CURVE ( 'NONE', #375, #765, #1046, .T. ) ;
#233 = EDGE_LOOP ( 'NONE', ( #461, #457, #577, #842, #430 ) ) ;
#234 = MECHANICAL_DESIGN_GEOMETRIC_PRESENTATION_REPRESENTATION (  '', ( #148 ), #510 ) ;
#235 = ORIENTED_EDGE ( 'NONE', *, *, #584, .T. ) ;
#236 = VERTEX_POINT ( 'NONE', #283 ) ;
#237 = VERTEX_POINT ( 'NONE', #39 ) ;
#238 = VERTEX_POINT ( 'NONE', #894 ) ;
#239 = DIRECTION ( 'NONE',  ( -1.000000000000000000, 0.0000000000000000000, 0.0000000000000000000 ) ) ;
#240 = AXIS2_PLACEMENT_3D ( 'NONE', #227, #53, #1012 ) ;
#241 = CARTESIAN_POINT ( 'NONE',  ( -3.000000000000000888, -1.819535758525432752E-15, 2.200000000000000622 ) ) ;
#242 = UNCERTAINTY_MEASURE_WITH_UNIT (LENGTH_MEASURE( 1.000000000000000082E-05 ), #823, 'distance_accuracy_value', 'NONE');
#243 = DIRECTION ( 'NONE',  ( -1.000000000000000000, -0.0000000000000000000, -0.0000000000000000000 ) ) ;
#244 = PLANE ( 'NONE',  #724 ) ;
#245 = VERTEX_POINT ( 'NONE', #639 ) ;
#246 = EDGE_CURVE ( 'NONE', #248, #765, #858, .T. ) ;
#247 = ORIENTED_EDGE ( 'NONE', *, *, #759, .F. ) ;
#248 = VERTEX_POINT ( 'NONE', #898 ) ;
#249 = DIRECTION ( 'NONE',  ( -0.0000000000000000000, -0.0000000000000000000, 1.000000000000000000 ) ) ;
#250 = VECTOR ( 'NONE', #266, 1000.000000000000000 ) ;
#251 = DIRECTION ( 'NONE',  ( 0.0000000000000000000, 0.0000000000000000000, 1.000000000000000000 ) ) ;
#252 = DIRECTION ( 'NONE',  ( 1.000000000000000000, -0.0000000000000000000, -0.0000000000000000000 ) ) ;
#253 = DIRECTION ( 'NONE',  ( 0.0000000000000000000, 0.0000000000000000000, -1.000000000000000000 ) ) ;
#254 = AXIS2_PLACEMENT_3D ( 'NONE', #450, #533, #275 ) ;
#255 = DIRECTION ( 'NONE',  ( 1.000000000000000000, 0.0000000000000000000, 0.0000000000000000000 ) ) ;
#256 = FACE_OUTER_BOUND ( 'NONE', #620, .T. ) ;
#257 = CIRCLE ( 'NONE', #421, 7.000000000000000000 ) ;
#258 = CARTESIAN_POINT ( 'NONE',  ( -7.200000000000001954, 1.249999999999999334, 0.6000000000000000888 ) ) ;
#259 = ORIENTED_EDGE ( 'NONE', *, *, #141, .F. ) ;
#260 = ORIENTED_EDGE ( 'NONE', *, *, #990, .T. ) ;
#261 = CARTESIAN_POINT ( 'NONE',  ( -9.700000000000002842, 1.249999999999999334, 0.6000000000000000888 ) ) ;
#262 = ORIENTED_EDGE ( 'NONE', *, *, #392, .F. ) ;
#263 = ORIENTED_EDGE ( 'NONE', *, *, #946, .F. ) ;
#264 = CARTESIAN_POINT ( 'NONE',  ( -7.200000000000001954, 3.750000000000000000, 0.8000000000000000444 ) ) ;
#265 =( NAMED_UNIT ( * ) PLANE_ANGLE_UNIT ( ) SI_UNIT ( $, .RADIAN. ) );
#266 = DIRECTION ( 'NONE',  ( 1.000000000000000000, -0.0000000000000000000, -0.0000000000000000000 ) ) ;
#267 = PLANE ( 'NONE',  #281 ) ;
#268 = CARTESIAN_POINT ( 'NONE',  ( 0.0000000000000000000, 0.0000000000000000000, 0.6000000000000000888 ) ) ;
#269 = PRESENTATION_LAYER_ASSIGNMENT (  '', '', ( #10 ) ) ;
#270 = CARTESIAN_POINT ( 'NONE',  ( -8.709422037299397346, 4.049999999999999822, 2.200000000000000622 ) ) ;
#271 = AXIS2_PLACEMENT_3D ( 'NONE', #40, #721, #634 ) ;
#272 = FACE_OUTER_BOUND ( 'NONE', #660, .T. ) ;
#273 = FACE_OUTER_BOUND ( 'NONE', #1067, .T. ) ;
#274 = DIRECTION ( 'NONE',  ( -0.0000000000000000000, 0.0000000000000000000, 1.000000000000000000 ) ) ;
#275 = DIRECTION ( 'NONE',  ( 1.000000000000000000, 0.0000000000000000000, 0.0000000000000000000 ) ) ;
#276 = DIRECTION ( 'NONE',  ( 0.0000000000000000000, -0.0000000000000000000, 1.000000000000000000 ) ) ;
#277 = LINE ( 'NONE', #140, #671 ) ;
#278 = ORIENTED_EDGE ( 'NONE', *, *, #607, .F. ) ;
#279 = DIRECTION ( 'NONE',  ( -0.0000000000000000000, -0.0000000000000000000, 1.000000000000000000 ) ) ;
#280 = ADVANCED_FACE ( 'NONE', ( #624 ), #727, .T. ) ;
#281 = AXIS2_PLACEMENT_3D ( 'NONE', #875, #622, #190 ) ;
#282 = CIRCLE ( 'NONE', #254, 5.250000000000000000 ) ;
#283 = CARTESIAN_POINT ( 'NONE',  ( 3.000000000000000444, -7.000000000000000000, 0.8000000000000000444 ) ) ;
#284 = CARTESIAN_POINT ( 'NONE',  ( 0.0000000000000000000, 0.0000000000000000000, 2.200000000000000178 ) ) ;
#285 = EDGE_CURVE ( 'NONE', #790, #135, #1101, .T. ) ;
#286 = CARTESIAN_POINT ( 'NONE',  ( 3.000000000000000888, 1.775737858763662409E-15, 2.999999999999999112 ) ) ;
#287 = ORIENTED_EDGE ( 'NONE', *, *, #191, .F. ) ;
#288 = EDGE_LOOP ( 'NONE', ( #1088, #1013, #779, #315 ) ) ;
#289 = ORIENTED_EDGE ( 'NONE', *, *, #174, .F. ) ;
#290 = EDGE_CURVE ( 'NONE', #429, #238, #846, .T. ) ;
#291 = AXIS2_PLACEMENT_3D ( 'NONE', #542, #364, #716 ) ;
#292 = SURFACE_STYLE_FILL_AREA ( #202 ) ;
#293 = SURFACE_STYLE_USAGE ( .BOTH. , #643 ) ;
#294 = DIRECTION ( 'NONE',  ( 1.000000000000000000, 0.0000000000000000000, 0.0000000000000000000 ) ) ;
#295 = CARTESIAN_POINT ( 'NONE',  ( -7.200000000000001954, -1.249999999999999334, 0.6000000000000000888 ) ) ;
#296 = DIRECTION ( 'NONE',  ( 0.0000000000000000000, 0.0000000000000000000, 1.000000000000000000 ) ) ;
#297 = CARTESIAN_POINT ( 'NONE',  ( 5.299999999999999822, 6.490628035480971924E-16, 0.8000000000000000444 ) ) ;
#298 = DIRECTION ( 'NONE',  ( -0.0000000000000000000, -0.0000000000000000000, 1.000000000000000000 ) ) ;
#299 = AXIS2_PLACEMENT_3D ( 'NONE', #1004, #487, #659 ) ;
#300 = SURFACE_STYLE_USAGE ( .BOTH. , #143 ) ;
#301 = PLANE ( 'NONE',  #571 ) ;
#302 = PRESENTATION_STYLE_ASSIGNMENT (( #161 ) ) ;
#303 = CARTESIAN_POINT ( 'NONE',  ( 3.000000000000000000, 5.249999999999999112, 2.500000000000000000 ) ) ;
#304 = SURFACE_STYLE_FILL_AREA ( #649 ) ;
#305 =( LENGTH_UNIT ( ) NAMED_UNIT ( * ) SI_UNIT ( .MILLI., .METRE. ) );
#306 = VERTEX_POINT ( 'NONE', #36 ) ;
#307 = VERTEX_POINT ( 'NONE', #989 ) ;
#308 = EDGE_CURVE ( 'NONE', #566, #602, #698, .T. ) ;
#309 = LINE ( 'NONE', #783, #86 ) ;
#310 = VECTOR ( 'NONE', #362, 1000.000000000000000 ) ;
#311 = PRESENTATION_LAYER_ASSIGNMENT (  '', '', ( #148 ) ) ;
#312 = CYLINDRICAL_SURFACE ( 'NONE', #360, 5.250000000000000000 ) ;
#313 = PLANE ( 'NONE',  #208 ) ;
#314 = ORIENTED_EDGE ( 'NONE', *, *, #213, .F. ) ;
#315 = ORIENTED_EDGE ( 'NONE', *, *, #607, .T. ) ;
#316 = ORIENTED_EDGE ( 'NONE', *, *, #392, .T. ) ;
#317 = FACE_OUTER_BOUND ( 'NONE', #662, .T. ) ;
#318 = STYLED_ITEM ( 'NONE', ( #302 ), #108 ) ;
#319 = DIRECTION ( 'NONE',  ( 0.0000000000000000000, 1.000000000000000000, 0.0000000000000000000 ) ) ;
#320 =( NAMED_UNIT ( * ) PLANE_ANGLE_UNIT ( ) SI_UNIT ( $, .RADIAN. ) );
#321 = VECTOR ( 'NONE', #645, 1000.000000000000000 ) ;
#322 = UNCERTAINTY_MEASURE_WITH_UNIT (LENGTH_MEASURE( 1.000000000000000082E-05 ), #561, 'distance_accuracy_value', 'NONE');
#323 = MECHANICAL_DESIGN_GEOMETRIC_PRESENTATION_REPRESENTATION (  '', ( #10 ), #508 ) ;
#324 = CARTESIAN_POINT ( 'NONE',  ( -3.000000000000000000, 5.249999999999999112, 2.500000000000000000 ) ) ;
#325 = STYLED_ITEM ( 'NONE', ( #959 ), #1097 ) ;
#326 = EDGE_LOOP ( 'NONE', ( #650, #262, #893 ) ) ;
#327 = VERTEX_POINT ( 'NONE', #973 ) ;
#328 = DIRECTION ( 'NONE',  ( 0.0000000000000000000, 0.0000000000000000000, 1.000000000000000000 ) ) ;
#329 = CARTESIAN_POINT ( 'NONE',  ( -7.200000000000001954, 1.249999999999999334, 0.8000000000000000444 ) ) ;
#330 = ORIENTED_EDGE ( 'NONE', *, *, #796, .F. ) ;
#331 = DIRECTION ( 'NONE',  ( 0.0000000000000000000, 0.0000000000000000000, 1.000000000000000000 ) ) ;
#332 = VECTOR ( 'NONE', #252, 1000.000000000000000 ) ;
#333 = CARTESIAN_POINT ( 'NONE',  ( -7.200000000000001954, -1.249999999999999334, 0.8000000000000000444 ) ) ;
#334 = DIRECTION ( 'NONE',  ( 0.0000000000000000000, -0.0000000000000000000, -1.000000000000000000 ) ) ;
#335 = DIRECTION ( 'NONE',  ( 0.0000000000000000000, -1.000000000000000000, 0.0000000000000000000 ) ) ;
#336 = STYLED_ITEM ( 'NONE', ( #370 ), #545 ) ;
#337 = CARTESIAN_POINT ( 'NONE',  ( 3.000000000000000444, -7.000000000000000000, 0.8000000000000000444 ) ) ;
#338 = DIRECTION ( 'NONE',  ( -0.0000000000000000000, -0.0000000000000000000, -1.000000000000000000 ) ) ;
#339 = CARTESIAN_POINT ( 'NONE',  ( 2.999999999999998668, 7.000000000000000000, 2.999999999999999112 ) ) ;
#340 = CYLINDRICAL_SURFACE ( 'NONE', #1099, 7.000000000000000888 ) ;
#341 = DIRECTION ( 'NONE',  ( 0.0000000000000000000, 0.0000000000000000000, -1.000000000000000000 ) ) ;
#342 = DIRECTION ( 'NONE',  ( 1.445602896647339410E-16, -1.000000000000000000, 0.0000000000000000000 ) ) ;
#343 = LINE ( 'NONE', #471, #996 ) ;
#344 = SURFACE_SIDE_STYLE ('',( #171 ) ) ;
#345 =( GEOMETRIC_REPRESENTATION_CONTEXT ( 3 ) GLOBAL_UNCERTAINTY_ASSIGNED_CONTEXT ( ( #381 ) ) GLOBAL_UNIT_ASSIGNED_CONTEXT ( ( #181, #535, #803 ) ) REPRESENTATION_CONTEXT ( 'NONE', 'WORKASPACE' ) );
#346 = ORIENTED_EDGE ( 'NONE', *, *, #377, .F. ) ;
#347 = EDGE_LOOP ( 'NONE', ( #389, #379 ) ) ;
#348 = ORIENTED_EDGE ( 'NONE', *, *, #853, .T. ) ;
#349 = PLANE ( 'NONE',  #993 ) ;
#350 = EDGE_CURVE ( 'NONE', #147, #806, #1100, .T. ) ;
#351 = DIRECTION ( 'NONE',  ( 1.000000000000000000, 1.445602896647339410E-16, -0.0000000000000000000 ) ) ;
#352 = CYLINDRICAL_SURFACE ( 'NONE', #1087, 7.000000000000000000 ) ;
#353 = AXIS2_PLACEMENT_3D ( 'NONE', #547, #903, #899 ) ;
#354 = DIRECTION ( 'NONE',  ( 1.000000000000000000, 0.0000000000000000000, 0.0000000000000000000 ) ) ;
#355 = SURFACE_STYLE_USAGE ( .BOTH. , #458 ) ;
#356 = CIRCLE ( 'NONE', #2, 7.000000000000000888 ) ;
#357 = CARTESIAN_POINT ( 'NONE',  ( -7.200000000000001954, -1.249999999999999334, 0.8000000000000000444 ) ) ;
#358 = VERTEX_POINT ( 'NONE', #128 ) ;
#359 = ORIENTED_EDGE ( 'NONE', *, *, #228, .T. ) ;
#360 = AXIS2_PLACEMENT_3D ( 'NONE', #130, #134, #217 ) ;
#361 = VERTEX_POINT ( 'NONE', #901 ) ;
#362 = DIRECTION ( 'NONE',  ( -0.0000000000000000000, -0.0000000000000000000, 1.000000000000000000 ) ) ;
#363 = CARTESIAN_POINT ( 'NONE',  ( -7.200000000000001954, 1.249999999999999334, 0.6000000000000000888 ) ) ;
#364 = DIRECTION ( 'NONE',  ( 0.0000000000000000000, 0.0000000000000000000, 1.000000000000000000 ) ) ;
#365 = UNCERTAINTY_MEASURE_WITH_UNIT (LENGTH_MEASURE( 1.000000000000000082E-05 ), #426, 'distance_accuracy_value', 'NONE');
#366 = ADVANCED_FACE ( 'NONE', ( #1018 ), #633, .F. ) ;
#367 = SURFACE_SIDE_STYLE ('',( #110 ) ) ;
#368 = EDGE_CURVE ( 'NONE', #472, #375, #78, .T. ) ;
#369 = FILL_AREA_STYLE ('',( #456 ) ) ;
#370 = PRESENTATION_STYLE_ASSIGNMENT (( #19 ) ) ;
#371 = FACE_OUTER_BOUND ( 'NONE', #413, .T. ) ;
#372 = PLANE ( 'NONE',  #552 ) ;
#373 = ORIENTED_EDGE ( 'NONE', *, *, #717, .F. ) ;
#374 = ORIENTED_EDGE ( 'NONE', *, *, #1024, .F. ) ;
#375 = VERTEX_POINT ( 'NONE', #400 ) ;
#376 = CARTESIAN_POINT ( 'NONE',  ( -8.709422037299397346, -4.049999999999999822, 11.20216992495330111 ) ) ;
#377 = EDGE_CURVE ( 'NONE', #429, #154, #485, .T. ) ;
#378 = ORIENTED_EDGE ( 'NONE', *, *, #90, .F. ) ;
#379 = ORIENTED_EDGE ( 'NONE', *, *, #141, .T. ) ;
#380 =( NAMED_UNIT ( * ) PLANE_ANGLE_UNIT ( ) SI_UNIT ( $, .RADIAN. ) );
#381 = UNCERTAINTY_MEASURE_WITH_UNIT (LENGTH_MEASURE( 1.000000000000000082E-05 ), #181, 'distance_accuracy_value', 'NONE');
#382 = CARTESIAN_POINT ( 'NONE',  ( -10.00000000000000178, -4.049999999999999822, 0.8000000000000000444 ) ) ;
#383 = CARTESIAN_POINT ( 'NONE',  ( -3.000000000000000888, -1.819535758525432752E-15, 2.999999999999999112 ) ) ;
#384 = CARTESIAN_POINT ( 'NONE',  ( -7.200000000000001954, 1.249999999999999334, 0.6000000000000000888 ) ) ;
#385 = FACE_OUTER_BOUND ( 'NONE', #956, .T. ) ;
#386 = DIRECTION ( 'NONE',  ( 0.0000000000000000000, 0.0000000000000000000, 1.000000000000000000 ) ) ;
#387 = SURFACE_SIDE_STYLE ('',( #292 ) ) ;
#388 = EDGE_LOOP ( 'NONE', ( #72, #826, #689, #910 ) ) ;
#389 = ORIENTED_EDGE ( 'NONE', *, *, #1008, .T. ) ;
#390 = ORIENTED_EDGE ( 'NONE', *, *, #717, .T. ) ;
#391 = DIRECTION ( 'NONE',  ( -0.0000000000000000000, -0.0000000000000000000, 1.000000000000000000 ) ) ;
#392 = EDGE_CURVE ( 'NONE', #806, #790, #532, .T. ) ;
#393 = FACE_OUTER_BOUND ( 'NONE', #739, .T. ) ;
#394 =( NAMED_UNIT ( * ) SI_UNIT ( $, .STERADIAN. ) SOLID_ANGLE_UNIT ( ) );
#395 = PRESENTATION_STYLE_ASSIGNMENT (( #300 ) ) ;
#396 = CARTESIAN_POINT ( 'NONE',  ( -10.00000000000000178, 4.049999999999999822, 0.8000000000000000444 ) ) ;
#397 = ADVANCED_FACE ( 'NONE', ( #272 ), #664, .F. ) ;
#398 = CARTESIAN_POINT ( 'NONE',  ( -9.700000000000002842, -1.249999999999999334, 0.6000000000000000888 ) ) ;
#399 = LINE ( 'NONE', #603, #1061 ) ;
#400 = CARTESIAN_POINT ( 'NONE',  ( -9.700000000000002842, 3.750000000000000000, 0.6000000000000000888 ) ) ;
#401 = AXIS2_PLACEMENT_3D ( 'NONE', #682, #770, #334 ) ;
#402 = VECTOR ( 'NONE', #243, 1000.000000000000000 ) ;
#403 = VERTEX_POINT ( 'NONE', #396 ) ;
#404 = VERTEX_POINT ( 'NONE', #1110 ) ;
#405 =( GEOMETRIC_REPRESENTATION_CONTEXT ( 3 ) GLOBAL_UNCERTAINTY_ASSIGNED_CONTEXT ( ( #211 ) ) GLOBAL_UNIT_ASSIGNED_CONTEXT ( ( #616, #710, #800 ) ) REPRESENTATION_CONTEXT ( 'NONE', 'WORKASPACE' ) );
#406 = VECTOR ( 'NONE', #74, 1000.000000000000000 ) ;
#407 = ADVANCED_FACE ( 'NONE', ( #642 ), #680, .F. ) ;
#408 = FILL_AREA_STYLE ('',( #928 ) ) ;
#409 = PRESENTATION_STYLE_ASSIGNMENT (( #355 ) ) ;
#410 = EDGE_CURVE ( 'NONE', #70, #403, #177, .T. ) ;
#411 = AXIS2_PLACEMENT_3D ( 'NONE', #383, #296, #631 ) ;
#412 = FACE_OUTER_BOUND ( 'NONE', #167, .T. ) ;
#413 = EDGE_LOOP ( 'NONE', ( #663, #499, #941, #278 ) ) ;
#414 = ORIENTED_EDGE ( 'NONE', *, *, #427, .F. ) ;
#415 = ORIENTED_EDGE ( 'NONE', *, *, #773, .F. ) ;
#416 = ORIENTED_EDGE ( 'NONE', *, *, #155, .F. ) ;
#417 = ADVANCED_FACE ( 'NONE', ( #256 ), #267, .F. ) ;
#418 = CARTESIAN_POINT ( 'NONE',  ( 0.0000000000000000000, 0.0000000000000000000, 3.000000000000000000 ) ) ;
#419 = DIRECTION ( 'NONE',  ( -0.0000000000000000000, 0.0000000000000000000, 1.000000000000000000 ) ) ;
#420 = VECTOR ( 'NONE', #11, 1000.000000000000000 ) ;
#421 = AXIS2_PLACEMENT_3D ( 'NONE', #241, #328, #513 ) ;
#422 = DIRECTION ( 'NONE',  ( 1.000000000000000000, 0.0000000000000000000, 0.0000000000000000000 ) ) ;
#423 = CARTESIAN_POINT ( 'NONE',  ( 3.000000000000000888, 1.775737858763662409E-15, 0.8000000000000000444 ) ) ;
#424 = LINE ( 'NONE', #886, #610 ) ;
#425 = CARTESIAN_POINT ( 'NONE',  ( -7.200000000000001954, 3.750000000000000000, 0.8000000000000000444 ) ) ;
#426 =( LENGTH_UNIT ( ) NAMED_UNIT ( * ) SI_UNIT ( .MILLI., .METRE. ) );
#427 = EDGE_CURVE ( 'NONE', #714, #1106, #747, .T. ) ;
#428 = FILL_AREA_STYLE_COLOUR ( '', #1112 ) ;
#429 = VERTEX_POINT ( 'NONE', #798 ) ;
#430 = ORIENTED_EDGE ( 'NONE', *, *, #550, .T. ) ;
#431 = CARTESIAN_POINT ( 'NONE',  ( -7.200000000000001954, -3.750000000000000000, 0.8000000000000000444 ) ) ;
#432 = ORIENTED_EDGE ( 'NONE', *, *, #290, .T. ) ;
#433 = DIRECTION ( 'NONE',  ( 0.0000000000000000000, -1.000000000000000000, 0.0000000000000000000 ) ) ;
#434 = EDGE_CURVE ( 'NONE', #590, #852, #424, .T. ) ;
#435 =( NAMED_UNIT ( * ) SI_UNIT ( $, .STERADIAN. ) SOLID_ANGLE_UNIT ( ) );
#436 = FACE_OUTER_BOUND ( 'NONE', #630, .T. ) ;
#437 = AXIS2_PLACEMENT_3D ( 'NONE', #1016, #68, #936 ) ;
#438 = DIRECTION ( 'NONE',  ( 0.0000000000000000000, 0.0000000000000000000, 1.000000000000000000 ) ) ;
#439 = DIRECTION ( 'NONE',  ( 0.0000000000000000000, 0.0000000000000000000, 1.000000000000000000 ) ) ;
#440 = CIRCLE ( 'NONE', #676, 5.250000000000000000 ) ;
#441 = COLOUR_RGB ( '',0.8823529411764705621, 0.9176470588235293713, 0.4901960784313725283 ) ;
#442 = CARTESIAN_POINT ( 'NONE',  ( 2.999999999999999112, -5.249999999999999112, 2.500000000000000000 ) ) ;
#443 = VECTOR ( 'NONE', #715, 1000.000000000000000 ) ;
#444 = LINE ( 'NONE', #398, #56 ) ;
#445 = ORIENTED_EDGE ( 'NONE', *, *, #102, .T. ) ;
#446 = ORIENTED_EDGE ( 'NONE', *, *, #967, .T. ) ;
#447 = EDGE_LOOP ( 'NONE', ( #841, #983, #921, #981 ) ) ;
#448 = DIRECTION ( 'NONE',  ( -0.0000000000000000000, -1.000000000000000000, -0.0000000000000000000 ) ) ;
#449 = EDGE_LOOP ( 'NONE', ( #807, #522, #30, #985 ) ) ;
#450 = CARTESIAN_POINT ( 'NONE',  ( 3.000000000000000000, 0.0000000000000000000, 2.500000000000000000 ) ) ;
#451 = ORIENTED_EDGE ( 'NONE', *, *, #453, .F. ) ;
#452 = DIRECTION ( 'NONE',  ( 0.0000000000000000000, -0.0000000000000000000, 1.000000000000000000 ) ) ;
#453 = EDGE_CURVE ( 'NONE', #1086, #43, #857, .T. ) ;
#454 = MECHANICAL_DESIGN_GEOMETRIC_PRESENTATION_REPRESENTATION (  '', ( #325 ), #854 ) ;
#455 = FACE_OUTER_BOUND ( 'NONE', #629, .T. ) ;
#456 = FILL_AREA_STYLE_COLOUR ( '', #441 ) ;
#457 = ORIENTED_EDGE ( 'NONE', *, *, #1090, .T. ) ;
#458 = SURFACE_SIDE_STYLE ('',( #205 ) ) ;
#459 = VERTEX_POINT ( 'NONE', #264 ) ;
#460 =( GEOMETRIC_REPRESENTATION_CONTEXT ( 3 ) GLOBAL_UNCERTAINTY_ASSIGNED_CONTEXT ( ( #87 ) ) GLOBAL_UNIT_ASSIGNED_CONTEXT ( ( #997, #54, #484 ) ) REPRESENTATION_CONTEXT ( 'NONE', 'WORKASPACE' ) );
#461 = ORIENTED_EDGE ( 'NONE', *, *, #427, .T. ) ;
#462 = ORIENTED_EDGE ( 'NONE', *, *, #946, .T. ) ;
#463 =( LENGTH_UNIT ( ) NAMED_UNIT ( * ) SI_UNIT ( .MILLI., .METRE. ) );
#464 = FILL_AREA_STYLE_COLOUR ( '', #528 ) ;
#465 = STYLED_ITEM ( 'NONE', ( #496 ), #614 ) ;
#466 = CARTESIAN_POINT ( 'NONE',  ( -8.709422037299397346, 4.049999999999999822, 0.8000000000000000444 ) ) ;
#467 = PRESENTATION_STYLE_ASSIGNMENT (( #836 ) ) ;
#468 = SURFACE_STYLE_USAGE ( .BOTH. , #387 ) ;
#469 = FACE_OUTER_BOUND ( 'NONE', #1015, .T. ) ;
#470 = CIRCLE ( 'NONE', #299, 5.299999999999999822 ) ;
#471 = CARTESIAN_POINT ( 'NONE',  ( -10.00000000000000178, -4.049999999999999822, 0.8000000000000000444 ) ) ;
#472 = VERTEX_POINT ( 'NONE', #261 ) ;
#473 = ORIENTED_EDGE ( 'NONE', *, *, #168, .F. ) ;
#474 = EDGE_CURVE ( 'NONE', #674, #1104, #116, .T. ) ;
#475 = DIRECTION ( 'NONE',  ( 1.000000000000000000, 0.0000000000000000000, 0.0000000000000000000 ) ) ;
#476 = ORIENTED_EDGE ( 'NONE', *, *, #720, .T. ) ;
#477 = PRODUCT_DEFINITION ( 'UNKNOWN', '', #838, #694 ) ;
#478 = ORIENTED_EDGE ( 'NONE', *, *, #492, .T. ) ;
#479 = DIRECTION ( 'NONE',  ( -1.445602896647339410E-16, 1.000000000000000000, 0.0000000000000000000 ) ) ;
#480 = FACE_OUTER_BOUND ( 'NONE', #729, .T. ) ;
#481 = CIRCLE ( 'NONE', #976, 5.299999999999999822 ) ;
#482 = LINE ( 'NONE', #696, #62 ) ;
#483 = STYLED_ITEM ( 'NONE', ( #467 ), #366 ) ;
#484 =( NAMED_UNIT ( * ) SI_UNIT ( $, .STERADIAN. ) SOLID_ANGLE_UNIT ( ) );
#485 = LINE ( 'NONE', #655, #612 ) ;
#486 = LINE ( 'NONE', #111, #509 ) ;
#487 = DIRECTION ( 'NONE',  ( 0.0000000000000000000, 0.0000000000000000000, 1.000000000000000000 ) ) ;
#488 = LINE ( 'NONE', #297, #5 ) ;
#489 = VERTEX_POINT ( 'NONE', #442 ) ;
#490 = UNCERTAINTY_MEASURE_WITH_UNIT (LENGTH_MEASURE( 1.000000000000000082E-05 ), #885, 'distance_accuracy_value', 'NONE');
#491 = SURFACE_SIDE_STYLE ('',( #1077 ) ) ;
#492 = EDGE_CURVE ( 'NONE', #358, #210, #399, .T. ) ;
#493 = DIRECTION ( 'NONE',  ( 1.000000000000000000, -0.0000000000000000000, -0.0000000000000000000 ) ) ;
#494 = FILL_AREA_STYLE ('',( #915 ) ) ;
#495 = EDGE_CURVE ( 'NONE', #307, #96, #1076, .T. ) ;
#496 = PRESENTATION_STYLE_ASSIGNMENT (( #835 ) ) ;
#497 = SURFACE_STYLE_USAGE ( .BOTH. , #995 ) ;
#498 = CARTESIAN_POINT ( 'NONE',  ( -9.700000000000002842, -3.750000000000000000, 0.6000000000000000888 ) ) ;
#499 = ORIENTED_EDGE ( 'NONE', *, *, #125, .T. ) ;
#500 = ORIENTED_EDGE ( 'NONE', *, *, #109, .T. ) ;
#501 =( GEOMETRIC_REPRESENTATION_CONTEXT ( 3 ) GLOBAL_UNCERTAINTY_ASSIGNED_CONTEXT ( ( #1017 ) ) GLOBAL_UNIT_ASSIGNED_CONTEXT ( ( #8, #864, #606 ) ) REPRESENTATION_CONTEXT ( 'NONE', 'WORKASPACE' ) );
#502 = FACE_OUTER_BOUND ( 'NONE', #955, .T. ) ;
#503 = VECTOR ( 'NONE', #626, 1000.000000000000000 ) ;
#504 = CARTESIAN_POINT ( 'NONE',  ( -3.000000000000000000, 0.0000000000000000000, 3.000000000000000000 ) ) ;
#505 = FACE_OUTER_BOUND ( 'NONE', #601, .T. ) ;
#506 = LINE ( 'NONE', #431, #867 ) ;
#507 = CARTESIAN_POINT ( 'NONE',  ( 5.299999999999999822, 6.490628035480971924E-16, 0.0000000000000000000 ) ) ;
#508 =( GEOMETRIC_REPRESENTATION_CONTEXT ( 3 ) GLOBAL_UNCERTAINTY_ASSIGNED_CONTEXT ( ( #242 ) ) GLOBAL_UNIT_ASSIGNED_CONTEXT ( ( #823, #657, #909 ) ) REPRESENTATION_CONTEXT ( 'NONE', 'WORKASPACE' ) );
#509 = VECTOR ( 'NONE', #493, 1000.000000000000000 ) ;
#510 =( GEOMETRIC_REPRESENTATION_CONTEXT ( 3 ) GLOBAL_UNCERTAINTY_ASSIGNED_CONTEXT ( ( #322 ) ) GLOBAL_UNIT_ASSIGNED_CONTEXT ( ( #561, #51, #764 ) ) REPRESENTATION_CONTEXT ( 'NONE', 'WORKASPACE' ) );
#511 = DIRECTION ( 'NONE',  ( 0.0000000000000000000, 0.0000000000000000000, 1.000000000000000000 ) ) ;
#512 = CARTESIAN_POINT ( 'NONE',  ( -7.200000000000001954, 3.750000000000000000, 0.6000000000000000888 ) ) ;
#513 = DIRECTION ( 'NONE',  ( 1.000000000000000000, 0.0000000000000000000, 0.0000000000000000000 ) ) ;
#514 = ORIENTED_EDGE ( 'NONE', *, *, #773, .T. ) ;
#515 = ORIENTED_EDGE ( 'NONE', *, *, #26, .F. ) ;
#516 = CARTESIAN_POINT ( 'NONE',  ( -3.000000000000000000, 0.0000000000000000000, 2.500000000000000000 ) ) ;
#517 = MECHANICAL_DESIGN_GEOMETRIC_PRESENTATION_REPRESENTATION (  '', ( #940 ), #811 ) ;
#518 = DIRECTION ( 'NONE',  ( 0.0000000000000000000, -1.000000000000000000, 0.0000000000000000000 ) ) ;
#519 = LINE ( 'NONE', #329, #937 ) ;
#520 = DIRECTION ( 'NONE',  ( 1.000000000000000000, 0.0000000000000000000, -0.0000000000000000000 ) ) ;
#521 = AXIS2_PLACEMENT_3D ( 'NONE', #179, #1054, #274 ) ;
#522 = ORIENTED_EDGE ( 'NONE', *, *, #796, .T. ) ;
#523 = ORIENTED_EDGE ( 'NONE', *, *, #168, .T. ) ;
#524 = ORIENTED_EDGE ( 'NONE', *, *, #71, .T. ) ;
#525 = ORIENTED_EDGE ( 'NONE', *, *, #15, .T. ) ;
#526 = ORIENTED_EDGE ( 'NONE', *, *, #565, .F. ) ;
#527 = EDGE_CURVE ( 'NONE', #930, #307, #817, .T. ) ;
#528 = COLOUR_RGB ( '',0.8823529411764705621, 0.9176470588235293713, 0.4901960784313725283 ) ;
#529 = AXIS2_PLACEMENT_3D ( 'NONE', #763, #594, #1029 ) ;
#530 = SURFACE_SIDE_STYLE ('',( #833 ) ) ;
#531 = SURFACE_STYLE_USAGE ( .BOTH. , #367 ) ;
#532 = LINE ( 'NONE', #1007, #65 ) ;
#533 = DIRECTION ( 'NONE',  ( 0.0000000000000000000, 0.0000000000000000000, 1.000000000000000000 ) ) ;
#534 = CARTESIAN_POINT ( 'NONE',  ( -7.200000000000001954, 3.750000000000000000, 0.6000000000000000888 ) ) ;
#535 =( NAMED_UNIT ( * ) PLANE_ANGLE_UNIT ( ) SI_UNIT ( $, .RADIAN. ) );
#536 = MECHANICAL_DESIGN_GEOMETRIC_PRESENTATION_REPRESENTATION (  '', ( #483 ), #788 ) ;
#537 = PRESENTATION_STYLE_ASSIGNMENT (( #293 ) ) ;
#538 = ORIENTED_EDGE ( 'NONE', *, *, #63, .T. ) ;
#539 = ORIENTED_EDGE ( 'NONE', *, *, #191, .T. ) ;
#540 = ORIENTED_EDGE ( 'NONE', *, *, #527, .F. ) ;
#541 = CARTESIAN_POINT ( 'NONE',  ( -5.299999999999999822, 0.0000000000000000000, 0.8000000000000000444 ) ) ;
#542 = CARTESIAN_POINT ( 'NONE',  ( 0.0000000000000000000, 0.0000000000000000000, 0.8000000000000000444 ) ) ;
#543 = EDGE_CURVE ( 'NONE', #489, #648, #440, .T. ) ;
#544 = FACE_OUTER_BOUND ( 'NONE', #123, .T. ) ;
#545 = ADVANCED_FACE ( 'NONE', ( #203 ), #781, .F. ) ;
#546 = CARTESIAN_POINT ( 'NONE',  ( -10.00000000000000178, 4.049999999999999822, 2.200000000000000622 ) ) ;
#547 = CARTESIAN_POINT ( 'NONE',  ( 0.0000000000000000000, 0.0000000000000000000, 0.6000000000000000888 ) ) ;
#548 = SURFACE_STYLE_FILL_AREA ( #832 ) ;
#549 = PRODUCT ( 'Speaker_20x14x3_Motorola L6', 'Speaker_20x14x3_Motorola L6', '', ( #151 ) ) ;
#550 = EDGE_CURVE ( 'NONE', #404, #714, #686, .T. ) ;
#551 = DIRECTION ( 'NONE',  ( 0.0000000000000000000, 0.0000000000000000000, -1.000000000000000000 ) ) ;
#552 = AXIS2_PLACEMENT_3D ( 'NONE', #966, #20, #24 ) ;
#553 = ORIENTED_EDGE ( 'NONE', *, *, #308, .F. ) ;
#554 = EDGE_LOOP ( 'NONE', ( #777, #1053, #957, #576 ) ) ;
#555 = CARTESIAN_POINT ( 'NONE',  ( -9.700000000000002842, -1.249999999999999334, 0.6000000000000000888 ) ) ;
#556 = UNCERTAINTY_MEASURE_WITH_UNIT (LENGTH_MEASURE( 1.000000000000000082E-05 ), #1006, 'distance_accuracy_value', 'NONE');
#557 = DIRECTION ( 'NONE',  ( 0.0000000000000000000, 0.0000000000000000000, -1.000000000000000000 ) ) ;
#558 = FACE_BOUND ( 'NONE', #447, .T. ) ;
#559 = DIRECTION ( 'NONE',  ( 0.0000000000000000000, 0.0000000000000000000, 1.000000000000000000 ) ) ;
#560 = CARTESIAN_POINT ( 'NONE',  ( -9.700000000000002842, 1.249999999999999334, 0.8000000000000000444 ) ) ;
#561 =( LENGTH_UNIT ( ) NAMED_UNIT ( * ) SI_UNIT ( .MILLI., .METRE. ) );
#562 = COLOUR_RGB ( '',0.8823529411764705621, 0.9176470588235293713, 0.4901960784313725283 ) ;
#563 = ORIENTED_EDGE ( 'NONE', *, *, #819, .F. ) ;
#564 = FILL_AREA_STYLE_COLOUR ( '', #1045 ) ;
#565 = EDGE_CURVE ( 'NONE', #930, #459, #719, .T. ) ;
#566 = VERTEX_POINT ( 'NONE', #49 ) ;
#567 = AXIS2_PLACEMENT_3D ( 'NONE', #516, #869, #1039 ) ;
#568 = LINE ( 'NONE', #580, #113 ) ;
#569 = CIRCLE ( 'NONE', #529, 7.000000000000000000 ) ;
#570 = DIRECTION ( 'NONE',  ( 0.0000000000000000000, 1.000000000000000000, 0.0000000000000000000 ) ) ;
#571 = AXIS2_PLACEMENT_3D ( 'NONE', #1081, #559, #44 ) ;
#572 = CIRCLE ( 'NONE', #984, 5.249999999999999112 ) ;
#573 = COLOUR_RGB ( '',0.7960784313725489669, 0.8235294117647058432, 0.9372549019607843146 ) ;
#574 = CARTESIAN_POINT ( 'NONE',  ( -2.999999999999998668, -7.000000000000000888, 30.41311123146741124 ) ) ;
#575 = ORIENTED_EDGE ( 'NONE', *, *, #232, .T. ) ;
#576 = ORIENTED_EDGE ( 'NONE', *, *, #952, .F. ) ;
#577 = ORIENTED_EDGE ( 'NONE', *, *, #661, .T. ) ;
#578 =( LENGTH_UNIT ( ) NAMED_UNIT ( * ) SI_UNIT ( .MILLI., .METRE. ) );
#579 = PRESENTATION_LAYER_ASSIGNMENT (  '', '', ( #318 ) ) ;
#580 = CARTESIAN_POINT ( 'NONE',  ( -3.000000000000000444, 6.999999999999998224, 30.41311123146741124 ) ) ;
#581 = UNCERTAINTY_MEASURE_WITH_UNIT (LENGTH_MEASURE( 1.000000000000000082E-05 ), #578, 'distance_accuracy_value', 'NONE');
#582 = SURFACE_STYLE_FILL_AREA ( #611 ) ;
#583 = VECTOR ( 'NONE', #518, 1000.000000000000000 ) ;
#584 = EDGE_CURVE ( 'NONE', #590, #237, #572, .T. ) ;
#585 = VECTOR ( 'NONE', #279, 1000.000000000000000 ) ;
#586 = MECHANICAL_DESIGN_GEOMETRIC_PRESENTATION_REPRESENTATION (  '', ( #1096 ), #708 ) ;
#587 = ADVANCED_FACE ( 'NONE', ( #455 ), #340, .T. ) ;
#588 = ORIENTED_EDGE ( 'NONE', *, *, #290, .F. ) ;
#589 =( NAMED_UNIT ( * ) PLANE_ANGLE_UNIT ( ) SI_UNIT ( $, .RADIAN. ) );
#590 = VERTEX_POINT ( 'NONE', #127 ) ;
#591 = ORIENTED_EDGE ( 'NONE', *, *, #902, .F. ) ;
#592 = AXIS2_PLACEMENT_3D ( 'NONE', #504, #847, #1107 ) ;
#593 = DIRECTION ( 'NONE',  ( 1.000000000000000000, 0.0000000000000000000, 0.0000000000000000000 ) ) ;
#594 = DIRECTION ( 'NONE',  ( 0.0000000000000000000, 0.0000000000000000000, 1.000000000000000000 ) ) ;
#595 = COLOUR_RGB ( '',0.9411764705882352811, 0.9411764705882352811, 0.9411764705882352811 ) ;
#596 = DIRECTION ( 'NONE',  ( -1.000000000000000000, 0.0000000000000000000, -0.0000000000000000000 ) ) ;
#597 = EDGE_CURVE ( 'NONE', #566, #628, #92, .T. ) ;
#598 = DIRECTION ( 'NONE',  ( -0.0000000000000000000, -1.000000000000000000, -0.0000000000000000000 ) ) ;
#599 = LINE ( 'NONE', #215, #891 ) ;
#600 = EDGE_LOOP ( 'NONE', ( #41, #247, #1083, #688 ) ) ;
#601 = EDGE_LOOP ( 'NONE', ( #591, #185 ) ) ;
#602 = VERTEX_POINT ( 'NONE', #731 ) ;
#603 = CARTESIAN_POINT ( 'NONE',  ( 2.999999999999998668, 7.000000000000000000, 0.8000000000000000444 ) ) ;
#604 = ORIENTED_EDGE ( 'NONE', *, *, #661, .F. ) ;
#605 = CARTESIAN_POINT ( 'NONE',  ( -3.000000000000000000, -5.249999999999999112, 2.500000000000000000 ) ) ;
#606 =( NAMED_UNIT ( * ) SI_UNIT ( $, .STERADIAN. ) SOLID_ANGLE_UNIT ( ) );
#607 = EDGE_CURVE ( 'NONE', #245, #59, #977, .T. ) ;
#608 = CARTESIAN_POINT ( 'NONE',  ( 0.0000000000000000000, 0.0000000000000000000, 2.200000000000000178 ) ) ;
#609 = AXIS2_PLACEMENT_3D ( 'NONE', #186, #789, #794 ) ;
#610 = VECTOR ( 'NONE', #175, 1000.000000000000000 ) ;
#611 = FILL_AREA_STYLE ('',( #428 ) ) ;
#612 = VECTOR ( 'NONE', #391, 1000.000000000000000 ) ;
#613 = STYLED_ITEM ( 'NONE', ( #409 ), #417 ) ;
#614 = MANIFOLD_SOLID_BREP ( 'Бобышка-Вытянуть4', #1095 ) ;
#615 = VECTOR ( 'NONE', #827, 1000.000000000000000 ) ;
#616 =( LENGTH_UNIT ( ) NAMED_UNIT ( * ) SI_UNIT ( .MILLI., .METRE. ) );
#617 = ORIENTED_EDGE ( 'NONE', *, *, #1008, .F. ) ;
#618 = ORIENTED_EDGE ( 'NONE', *, *, #119, .F. ) ;
#619 = ORIENTED_EDGE ( 'NONE', *, *, #228, .F. ) ;
#620 = EDGE_LOOP ( 'NONE', ( #825, #416, #473, #876 ) ) ;
#621 = LINE ( 'NONE', #25, #503 ) ;
#622 = DIRECTION ( 'NONE',  ( 0.0000000000000000000, -1.000000000000000000, -0.0000000000000000000 ) ) ;
#623 = DIRECTION ( 'NONE',  ( 0.0000000000000000000, 0.0000000000000000000, -1.000000000000000000 ) ) ;
#624 = FACE_OUTER_BOUND ( 'NONE', #326, .T. ) ;
#625 = DIRECTION ( 'NONE',  ( 1.000000000000000000, 1.445602896647339410E-16, -0.0000000000000000000 ) ) ;
#626 = DIRECTION ( 'NONE',  ( -0.0000000000000000000, -0.0000000000000000000, -1.000000000000000000 ) ) ;
#627 = MECHANICAL_DESIGN_GEOMETRIC_PRESENTATION_REPRESENTATION (  '', ( #336 ), #405 ) ;
#628 = VERTEX_POINT ( 'NONE', #911 ) ;
#629 = EDGE_LOOP ( 'NONE', ( #850, #524, #446, #83, #1094, #677 ) ) ;
#630 = EDGE_LOOP ( 'NONE', ( #703, #221, #929, #863 ) ) ;
#631 = DIRECTION ( 'NONE',  ( 1.000000000000000000, 0.0000000000000000000, 0.0000000000000000000 ) ) ;
#632 = ORIENTED_EDGE ( 'NONE', *, *, #597, .F. ) ;
#633 = PLANE ( 'NONE',  #240 ) ;
#634 = DIRECTION ( 'NONE',  ( -1.000000000000000000, 0.0000000000000000000, 0.0000000000000000000 ) ) ;
#635 = VECTOR ( 'NONE', #80, 1000.000000000000000 ) ;
#636 = PRESENTATION_LAYER_ASSIGNMENT (  '', '', ( #830 ) ) ;
#637 = CARTESIAN_POINT ( 'NONE',  ( -3.000000000000000888, -1.819535758525432752E-15, 0.8000000000000000444 ) ) ;
#638 = DIRECTION ( 'NONE',  ( 1.000000000000000000, 0.0000000000000000000, 0.0000000000000000000 ) ) ;
#639 = CARTESIAN_POINT ( 'NONE',  ( 3.000000000000000000, 5.249999999999999112, 2.500000000000000000 ) ) ;
#640 =( LENGTH_UNIT ( ) NAMED_UNIT ( * ) SI_UNIT ( .MILLI., .METRE. ) );
#641 = CARTESIAN_POINT ( 'NONE',  ( -8.709422037299397346, 4.049999999999999822, 0.8000000000000000444 ) ) ;
#642 = FACE_OUTER_BOUND ( 'NONE', #288, .T. ) ;
#643 = SURFACE_SIDE_STYLE ('',( #304 ) ) ;
#644 = VECTOR ( 'NONE', #557, 1000.000000000000000 ) ;
#645 = DIRECTION ( 'NONE',  ( -1.000000000000000000, 0.0000000000000000000, 0.0000000000000000000 ) ) ;
#646 = EDGE_CURVE ( 'NONE', #472, #248, #774, .T. ) ;
#647 = AXIS2_PLACEMENT_3D ( 'NONE', #31, #1047, #193 ) ;
#648 = VERTEX_POINT ( 'NONE', #142 ) ;
#649 = FILL_AREA_STYLE ('',( #85 ) ) ;
#650 = ORIENTED_EDGE ( 'NONE', *, *, #109, .F. ) ;
#651 = ORIENTED_EDGE ( 'NONE', *, *, #874, .F. ) ;
#652 = FACE_OUTER_BOUND ( 'NONE', #690, .T. ) ;
#653 = DIRECTION ( 'NONE',  ( -1.000000000000000000, -0.0000000000000000000, -0.0000000000000000000 ) ) ;
#654 = VECTOR ( 'NONE', #249, 1000.000000000000000 ) ;
#655 = CARTESIAN_POINT ( 'NONE',  ( -7.200000000000001954, -3.750000000000000000, 0.6000000000000000888 ) ) ;
#656 = AXIS2_PLACEMENT_3D ( 'NONE', #675, #239, #331 ) ;
#657 =( NAMED_UNIT ( * ) PLANE_ANGLE_UNIT ( ) SI_UNIT ( $, .RADIAN. ) );
#658 = VECTOR ( 'NONE', #448, 1000.000000000000000 ) ;
#659 = DIRECTION ( 'NONE',  ( 1.000000000000000000, 0.0000000000000000000, 0.0000000000000000000 ) ) ;
#660 = EDGE_LOOP ( 'NONE', ( #153, #136, #540, #860 ) ) ;
#661 = EDGE_CURVE ( 'NONE', #361, #107, #38, .T. ) ;
#662 = EDGE_LOOP ( 'NONE', ( #348, #451, #895, #1056 ) ) ;
#663 = ORIENTED_EDGE ( 'NONE', *, *, #990, .F. ) ;
#664 = PLANE ( 'NONE',  #656 ) ;
#665 = COLOUR_RGB ( '',0.3333333333333333148, 0.3333333333333333148, 0.3333333333333333148 ) ;
#666 = APPLICATION_CONTEXT ( 'automotive_design' ) ;
#667 = EDGE_CURVE ( 'NONE', #154, #306, #506, .T. ) ;
#668 = VECTOR ( 'NONE', #570, 1000.000000000000000 ) ;
#669 = CYLINDRICAL_SURFACE ( 'NONE', #752, 5.250000000000000000 ) ;
#670 = CARTESIAN_POINT ( 'NONE',  ( -9.700000000000002842, -1.249999999999999334, 0.8000000000000000444 ) ) ;
#671 = VECTOR ( 'NONE', #988, 1000.000000000000000 ) ;
#673 = ORIENTED_EDGE ( 'NONE', *, *, #720, .F. ) ;
#672 = APPLICATION_PROTOCOL_DEFINITION ( 'draft international standard', 'automotive_design', 1998, #979 ) ;
#674 = VERTEX_POINT ( 'NONE', #953 ) ;
#675 = CARTESIAN_POINT ( 'NONE',  ( -7.200000000000001954, 1.249999999999999334, 0.6000000000000000888 ) ) ;
#676 = AXIS2_PLACEMENT_3D ( 'NONE', #892, #1062, #117 ) ;
#677 = ORIENTED_EDGE ( 'NONE', *, *, #102, .F. ) ;
#678 = DIRECTION ( 'NONE',  ( 1.000000000000000000, 0.0000000000000000000, 0.0000000000000000000 ) ) ;
#679 = CYLINDRICAL_SURFACE ( 'NONE', #271, 5.299999999999999822 ) ;
#680 = PLANE ( 'NONE',  #112 ) ;
#681 = VECTOR ( 'NONE', #1115, 1000.000000000000000 ) ;
#682 = CARTESIAN_POINT ( 'NONE',  ( -10.00000000000000178, -4.049999999999999822, 11.20216992495330111 ) ) ;
#683 = FILL_AREA_STYLE_COLOUR ( '', #813 ) ;
#684 = EDGE_CURVE ( 'NONE', #459, #96, #519, .T. ) ;
#685 = PRESENTATION_LAYER_ASSIGNMENT (  '', '', ( #325 ) ) ;
#686 = CIRCLE ( 'NONE', #849, 7.000000000000000000 ) ;
#687 = PLANE ( 'NONE',  #1075 ) ;
#688 = ORIENTED_EDGE ( 'NONE', *, *, #434, .T. ) ;
#689 = ORIENTED_EDGE ( 'NONE', *, *, #919, .T. ) ;
#690 = EDGE_LOOP ( 'NONE', ( #768, #563, #588, #879 ) ) ;
#691 = DIRECTION ( 'NONE',  ( -1.000000000000000000, -1.445602896647339410E-16, 0.0000000000000000000 ) ) ;
#692 = AXIS2_PLACEMENT_3D ( 'NONE', #189, #100, #114 ) ;
#693 = CYLINDRICAL_SURFACE ( 'NONE', #567, 5.249999999999999112 ) ;
#694 = PRODUCT_DEFINITION_CONTEXT ( 'detailed design', #666, 'design' ) ;
#695 = CARTESIAN_POINT ( 'NONE',  ( -3.000000000000000888, -1.819535758525432752E-15, 30.41311123146741124 ) ) ;
#696 = CARTESIAN_POINT ( 'NONE',  ( -7.200000000000001954, -1.249999999999999334, 0.8000000000000000444 ) ) ;
#697 = AXIS2_PLACEMENT_3D ( 'NONE', #284, #386, #1063 ) ;
#698 = LINE ( 'NONE', #376, #101 ) ;
#699 = LINE ( 'NONE', #337, #1092 ) ;
#700 = CARTESIAN_POINT ( 'NONE',  ( 2.999999999999999112, -5.249999999999999112, 2.500000000000000000 ) ) ;
#701 = CARTESIAN_POINT ( 'NONE',  ( -9.700000000000002842, -1.249999999999999334, 0.6000000000000000888 ) ) ;
#702 = ORIENTED_EDGE ( 'NONE', *, *, #492, .F. ) ;
#703 = ORIENTED_EDGE ( 'NONE', *, *, #246, .T. ) ;
#704 = ADVANCED_FACE ( 'NONE', ( #760 ), #352, .T. ) ;
#705 = PLANE ( 'NONE',  #521 ) ;
#706 = ORIENTED_EDGE ( 'NONE', *, *, #32, .T. ) ;
#707 = EDGE_CURVE ( 'NONE', #1038, #154, #482, .T. ) ;
#708 =( GEOMETRIC_REPRESENTATION_CONTEXT ( 3 ) GLOBAL_UNCERTAINTY_ASSIGNED_CONTEXT ( ( #490 ) ) GLOBAL_UNIT_ASSIGNED_CONTEXT ( ( #885, #265, #711 ) ) REPRESENTATION_CONTEXT ( 'NONE', 'WORKASPACE' ) );
#709 = CIRCLE ( 'NONE', #647, 5.299999999999999822 ) ;
#710 =( NAMED_UNIT ( * ) PLANE_ANGLE_UNIT ( ) SI_UNIT ( $, .RADIAN. ) );
#711 =( NAMED_UNIT ( * ) SI_UNIT ( $, .STERADIAN. ) SOLID_ANGLE_UNIT ( ) );
#712 = FILL_AREA_STYLE_COLOUR ( '', #843 ) ;
#713 = ADVANCED_FACE ( 'NONE', ( #947, #172, #784, #558 ), #349, .F. ) ;
#714 = VERTEX_POINT ( 'NONE', #1113 ) ;
#715 = DIRECTION ( 'NONE',  ( 0.0000000000000000000, 1.000000000000000000, 0.0000000000000000000 ) ) ;
#716 = DIRECTION ( 'NONE',  ( 1.000000000000000000, 0.0000000000000000000, 0.0000000000000000000 ) ) ;
#717 = EDGE_CURVE ( 'NONE', #219, #429, #1071, .T. ) ;
#718 = CARTESIAN_POINT ( 'NONE',  ( 3.000000000000000444, -7.000000000000000000, 2.999999999999999112 ) ) ;
#719 = LINE ( 'NONE', #23, #310 ) ;
#720 = EDGE_CURVE ( 'NONE', #237, #489, #772, .T. ) ;
#721 = DIRECTION ( 'NONE',  ( -0.0000000000000000000, -0.0000000000000000000, -1.000000000000000000 ) ) ;
#722 = ADVANCED_FACE ( 'NONE', ( #436 ), #687, .F. ) ;
#723 = VECTOR ( 'NONE', #943, 1000.000000000000000 ) ;
#724 = AXIS2_PLACEMENT_3D ( 'NONE', #89, #342, #160 ) ;
#725 = DIRECTION ( 'NONE',  ( 0.0000000000000000000, 0.0000000000000000000, 1.000000000000000000 ) ) ;
#726 = FILL_AREA_STYLE_COLOUR ( '', #216 ) ;
#727 = PLANE ( 'NONE',  #697 ) ;
#728 = CARTESIAN_POINT ( 'NONE',  ( -9.700000000000002842, -1.249999999999999334, 0.6000000000000000888 ) ) ;
#729 = EDGE_LOOP ( 'NONE', ( #259, #538, #908, #923 ) ) ;
#730 = VERTEX_POINT ( 'NONE', #91 ) ;
#731 = CARTESIAN_POINT ( 'NONE',  ( -8.709422037299400898, -4.049999999999999822, 0.8000000000000000444 ) ) ;
#732 = PRESENTATION_LAYER_ASSIGNMENT (  '', '', ( #336 ) ) ;
#733 = FACE_OUTER_BOUND ( 'NONE', #156, .T. ) ;
#734 = DIRECTION ( 'NONE',  ( -1.000000000000000000, -0.0000000000000000000, -0.0000000000000000000 ) ) ;
#735 = SURFACE_STYLE_USAGE ( .BOTH. , #992 ) ;
#736 = FILL_AREA_STYLE ('',( #890 ) ) ;
#737 = CARTESIAN_POINT ( 'NONE',  ( -10.00000000000000178, -1.819535758525432752E-15, 30.41311123146741124 ) ) ;
#738 = EDGE_CURVE ( 'NONE', #602, #1103, #569, .T. ) ;
#739 = EDGE_LOOP ( 'NONE', ( #415, #316, #907, #618 ) ) ;
#740 = ORIENTED_EDGE ( 'NONE', *, *, #350, .T. ) ;
#741 = ADVANCED_FACE ( 'NONE', ( #544 ), #9, .T. ) ;
#742 = ORIENTED_EDGE ( 'NONE', *, *, #896, .T. ) ;
#743 = FILL_AREA_STYLE_COLOUR ( '', #562 ) ;
#744 = FACE_OUTER_BOUND ( 'NONE', #792, .T. ) ;
#745 = CARTESIAN_POINT ( 'NONE',  ( -9.700000000000002842, -1.249999999999999334, 0.8000000000000000444 ) ) ;
#746 =( GEOMETRIC_REPRESENTATION_CONTEXT ( 3 ) GLOBAL_UNCERTAINTY_ASSIGNED_CONTEXT ( ( #1091 ) ) GLOBAL_UNIT_ASSIGNED_CONTEXT ( ( #970, #880, #963 ) ) REPRESENTATION_CONTEXT ( 'NONE', 'WORKASPACE' ) );
#747 = LINE ( 'NONE', #1059, #129 ) ;
#748 =( NAMED_UNIT ( * ) SI_UNIT ( $, .STERADIAN. ) SOLID_ANGLE_UNIT ( ) );
#749 = SURFACE_STYLE_FILL_AREA ( #494 ) ;
#750 = DIRECTION ( 'NONE',  ( 0.0000000000000000000, -0.0000000000000000000, 1.000000000000000000 ) ) ;
#751 = VECTOR ( 'NONE', #1040, 1000.000000000000000 ) ;
#752 = AXIS2_PLACEMENT_3D ( 'NONE', #965, #1073, #905 ) ;
#753 = ORIENTED_EDGE ( 'NONE', *, *, #919, .F. ) ;
#754 = DIRECTION ( 'NONE',  ( 0.0000000000000000000, 0.0000000000000000000, 1.000000000000000000 ) ) ;
#755 = UNCERTAINTY_MEASURE_WITH_UNIT (LENGTH_MEASURE( 1.000000000000000082E-05 ), #305, 'distance_accuracy_value', 'NONE');
#756 = PRODUCT_RELATED_PRODUCT_CATEGORY ( 'part', '', ( #549 ) ) ;
#757 = EDGE_LOOP ( 'NONE', ( #235, #476, #69, #260, #872 ) ) ;
#758 =( NAMED_UNIT ( * ) SI_UNIT ( $, .STERADIAN. ) SOLID_ANGLE_UNIT ( ) );
#759 = EDGE_CURVE ( 'NONE', #237, #730, #309, .T. ) ;
#760 = FACE_OUTER_BOUND ( 'NONE', #18, .T. ) ;
#761 = STYLED_ITEM ( 'NONE', ( #1002 ), #1072 ) ;
#762 =( LENGTH_UNIT ( ) NAMED_UNIT ( * ) SI_UNIT ( .MILLI., .METRE. ) );
#763 = CARTESIAN_POINT ( 'NONE',  ( -3.000000000000000888, -1.819535758525432752E-15, 0.8000000000000000444 ) ) ;
#764 =( NAMED_UNIT ( * ) SI_UNIT ( $, .STERADIAN. ) SOLID_ANGLE_UNIT ( ) );
#765 = VERTEX_POINT ( 'NONE', #797 ) ;
#766 = MECHANICAL_DESIGN_GEOMETRIC_PRESENTATION_REPRESENTATION (  '', ( #830 ), #460 ) ;
#767 = VERTEX_POINT ( 'NONE', #541 ) ;
#768 = ORIENTED_EDGE ( 'NONE', *, *, #667, .T. ) ;
#769 = CARTESIAN_POINT ( 'NONE',  ( 0.0000000000000000000, 0.0000000000000000000, 0.0000000000000000000 ) ) ;
#770 = DIRECTION ( 'NONE',  ( 0.0000000000000000000, -1.000000000000000000, 0.0000000000000000000 ) ) ;
#771 = DIRECTION ( 'NONE',  ( -0.0000000000000000000, -0.0000000000000000000, -1.000000000000000000 ) ) ;
#772 = LINE ( 'NONE', #866, #1043 ) ;
#773 = EDGE_CURVE ( 'NONE', #806, #403, #960, .T. ) ;
#774 = LINE ( 'NONE', #212, #35 ) ;
#775 = DIRECTION ( 'NONE',  ( 1.000000000000000000, 0.0000000000000000000, 0.0000000000000000000 ) ) ;
#776 = CARTESIAN_POINT ( 'NONE',  ( -3.000000000000000888, -1.819535758525432752E-15, 2.200000000000000622 ) ) ;
#777 = ORIENTED_EDGE ( 'NONE', *, *, #246, .F. ) ;
#778 = CARTESIAN_POINT ( 'NONE',  ( -9.700000000000002842, 1.249999999999999334, 0.6000000000000000888 ) ) ;
#779 = ORIENTED_EDGE ( 'NONE', *, *, #61, .F. ) ;
#780 = AXIS2_PLACEMENT_3D ( 'NONE', #776, #1028, #255 ) ;
#781 = PLANE ( 'NONE',  #926 ) ;
#782 = SHAPE_DEFINITION_REPRESENTATION ( #137, #120 ) ;
#783 = CARTESIAN_POINT ( 'NONE',  ( -3.000000000000000000, -5.249999999999999112, 2.500000000000000000 ) ) ;
#784 = FACE_OUTER_BOUND ( 'NONE', #97, .T. ) ;
#785 = CARTESIAN_POINT ( 'NONE',  ( 3.000000000000000000, 0.0000000000000000000, 3.000000000000000000 ) ) ;
#786 = SURFACE_SIDE_STYLE ('',( #582 ) ) ;
#787 = DIRECTION ( 'NONE',  ( -0.0000000000000000000, 1.000000000000000000, -0.0000000000000000000 ) ) ;
#788 =( GEOMETRIC_REPRESENTATION_CONTEXT ( 3 ) GLOBAL_UNCERTAINTY_ASSIGNED_CONTEXT ( ( #755 ) ) GLOBAL_UNIT_ASSIGNED_CONTEXT ( ( #305, #1000, #748 ) ) REPRESENTATION_CONTEXT ( 'NONE', 'WORKASPACE' ) );
#789 = DIRECTION ( 'NONE',  ( 0.0000000000000000000, 1.000000000000000000, 0.0000000000000000000 ) ) ;
#790 = VERTEX_POINT ( 'NONE', #270 ) ;
#791 = ORIENTED_EDGE ( 'NONE', *, *, #71, .F. ) ;
#792 = EDGE_LOOP ( 'NONE', ( #742, #753, #673, #1068 ) ) ;
#793 = DIRECTION ( 'NONE',  ( -0.0000000000000000000, -0.0000000000000000000, -1.000000000000000000 ) ) ;
#794 = DIRECTION ( 'NONE',  ( 0.0000000000000000000, -0.0000000000000000000, 1.000000000000000000 ) ) ;
#795 = ORIENTED_EDGE ( 'NONE', *, *, #738, .F. ) ;
#796 = EDGE_CURVE ( 'NONE', #375, #930, #972, .T. ) ;
#797 = CARTESIAN_POINT ( 'NONE',  ( -9.700000000000002842, 3.750000000000000000, 0.8000000000000000444 ) ) ;
#798 = CARTESIAN_POINT ( 'NONE',  ( -7.200000000000001954, -3.750000000000000000, 0.6000000000000000888 ) ) ;
#799 = LINE ( 'NONE', #163, #48 ) ;
#800 =( NAMED_UNIT ( * ) SI_UNIT ( $, .STERADIAN. ) SOLID_ANGLE_UNIT ( ) );
#801 = PLANE ( 'NONE',  #353 ) ;
#802 = VECTOR ( 'NONE', #623, 1000.000000000000000 ) ;
#803 =( NAMED_UNIT ( * ) SI_UNIT ( $, .STERADIAN. ) SOLID_ANGLE_UNIT ( ) );
#804 = CARTESIAN_POINT ( 'NONE',  ( -10.00000000000000178, -1.734723475976807094E-15, 2.200000000000000622 ) ) ;
#805 =( GEOMETRIC_REPRESENTATION_CONTEXT ( 3 ) GLOBAL_UNCERTAINTY_ASSIGNED_CONTEXT ( ( #365 ) ) GLOBAL_UNIT_ASSIGNED_CONTEXT ( ( #426, #950, #435 ) ) REPRESENTATION_CONTEXT ( 'NONE', 'WORKASPACE' ) );
#806 = VERTEX_POINT ( 'NONE', #103 ) ;
#807 = ORIENTED_EDGE ( 'NONE', *, *, #368, .T. ) ;
#808 = DIRECTION ( 'NONE',  ( 0.0000000000000000000, 0.0000000000000000000, 1.000000000000000000 ) ) ;
#809 = CARTESIAN_POINT ( 'NONE',  ( -8.709422037299397346, 4.049999999999999822, 11.20216992495330111 ) ) ;
#810 = DIRECTION ( 'NONE',  ( 1.000000000000000000, 0.0000000000000000000, 0.0000000000000000000 ) ) ;
#811 =( GEOMETRIC_REPRESENTATION_CONTEXT ( 3 ) GLOBAL_UNCERTAINTY_ASSIGNED_CONTEXT ( ( #581 ) ) GLOBAL_UNIT_ASSIGNED_CONTEXT ( ( #578, #66, #918 ) ) REPRESENTATION_CONTEXT ( 'NONE', 'WORKASPACE' ) );
#812 = DIRECTION ( 'NONE',  ( 1.000000000000000000, 0.0000000000000000000, 0.0000000000000000000 ) ) ;
#813 = COLOUR_RGB ( '',0.8823529411764705621, 0.9176470588235293713, 0.4901960784313725283 ) ;
#814 = DIRECTION ( 'NONE',  ( 0.0000000000000000000, 1.000000000000000000, 0.0000000000000000000 ) ) ;
#815 = CARTESIAN_POINT ( 'NONE',  ( 0.0000000000000000000, 0.0000000000000000000, 0.0000000000000000000 ) ) ;
#816 = ADVANCED_FACE ( 'NONE', ( #505 ), #132, .F. ) ;
#817 = LINE ( 'NONE', #258, #658 ) ;
#818 = VECTOR ( 'NONE', #118, 1000.000000000000000 ) ;
#819 = EDGE_CURVE ( 'NONE', #238, #306, #159, .T. ) ;
#820 = FILL_AREA_STYLE_COLOUR ( '', #665 ) ;
#821 = FILL_AREA_STYLE ('',( #743 ) ) ;
#822 = PRESENTATION_LAYER_ASSIGNMENT (  '', '', ( #761 ) ) ;
#823 =( LENGTH_UNIT ( ) NAMED_UNIT ( * ) SI_UNIT ( .MILLI., .METRE. ) );
#824 = SURFACE_STYLE_FILL_AREA ( #408 ) ;
#825 = ORIENTED_EDGE ( 'NONE', *, *, #933, .T. ) ;
#826 = ORIENTED_EDGE ( 'NONE', *, *, #543, .F. ) ;
#827 = DIRECTION ( 'NONE',  ( -0.0000000000000000000, -0.0000000000000000000, -1.000000000000000000 ) ) ;
#828 = CARTESIAN_POINT ( 'NONE',  ( -10.00000000000000178, -4.049999999999999822, 2.200000000000000622 ) ) ;
#829 = LINE ( 'NONE', #333, #332 ) ;
#830 = STYLED_ITEM ( 'NONE', ( #3 ), #173 ) ;
#831 = ADVANCED_FACE ( 'NONE', ( #225, #924 ), #845, .T. ) ;
#832 = FILL_AREA_STYLE ('',( #726 ) ) ;
#833 = SURFACE_STYLE_FILL_AREA ( #897 ) ;
#834 = DIRECTION ( 'NONE',  ( -0.0000000000000000000, -0.0000000000000000000, -1.000000000000000000 ) ) ;
#835 = SURFACE_STYLE_USAGE ( .BOTH. , #223 ) ;
#836 = SURFACE_STYLE_USAGE ( .BOTH. , #491 ) ;
#837 = EDGE_CURVE ( 'NONE', #361, #358, #900, .T. ) ;
#838 = PRODUCT_DEFINITION_FORMATION_WITH_SPECIFIED_SOURCE ( 'ANY', '', #549, .NOT_KNOWN. ) ;
#839 = LINE ( 'NONE', #1030, #146 ) ;
#840 = ORIENTED_EDGE ( 'NONE', *, *, #1048, .T. ) ;
#841 = ORIENTED_EDGE ( 'NONE', *, *, #933, .F. ) ;
#842 = ORIENTED_EDGE ( 'NONE', *, *, #1109, .T. ) ;
#843 = COLOUR_RGB ( '',0.8823529411764705621, 0.9176470588235293713, 0.4901960784313725283 ) ;
#844 = AXIS2_PLACEMENT_3D ( 'NONE', #286, #1070, #475 ) ;
#845 = PLANE ( 'NONE',  #157 ) ;
#846 = LINE ( 'NONE', #206, #321 ) ;
#847 = DIRECTION ( 'NONE',  ( 0.0000000000000000000, 0.0000000000000000000, 1.000000000000000000 ) ) ;
#848 = CIRCLE ( 'NONE', #592, 5.249999999999999112 ) ;
#849 = AXIS2_PLACEMENT_3D ( 'NONE', #883, #964, #294 ) ;
#850 = ORIENTED_EDGE ( 'NONE', *, *, #550, .F. ) ;
#851 = ORIENTED_EDGE ( 'NONE', *, *, #597, .T. ) ;
#852 = VERTEX_POINT ( 'NONE', #230 ) ;
#853 = EDGE_CURVE ( 'NONE', #306, #43, #882, .T. ) ;
#854 =( GEOMETRIC_REPRESENTATION_CONTEXT ( 3 ) GLOBAL_UNCERTAINTY_ASSIGNED_CONTEXT ( ( #1005 ) ) GLOBAL_UNIT_ASSIGNED_CONTEXT ( ( #640, #207, #1074 ) ) REPRESENTATION_CONTEXT ( 'NONE', 'WORKASPACE' ) );
#855 = DIRECTION ( 'NONE',  ( -1.000000000000000000, 0.0000000000000000000, 0.0000000000000000000 ) ) ;
#856 = DIRECTION ( 'NONE',  ( 1.000000000000000000, 0.0000000000000000000, 0.0000000000000000000 ) ) ;
#857 = LINE ( 'NONE', #701, #585 ) ;
#858 = LINE ( 'NONE', #560, #178 ) ;
#859 = FACE_OUTER_BOUND ( 'NONE', #757, .T. ) ;
#860 = ORIENTED_EDGE ( 'NONE', *, *, #565, .T. ) ;
#861 = MECHANICAL_DESIGN_GEOMETRIC_PRESENTATION_REPRESENTATION (  '', ( #1019 ), #805 ) ;
#862 = ORIENTED_EDGE ( 'NONE', *, *, #1109, .F. ) ;
#863 = ORIENTED_EDGE ( 'NONE', *, *, #646, .T. ) ;
#864 =( NAMED_UNIT ( * ) PLANE_ANGLE_UNIT ( ) SI_UNIT ( $, .RADIAN. ) );
#865 = FILL_AREA_STYLE ('',( #683 ) ) ;
#866 = CARTESIAN_POINT ( 'NONE',  ( -3.000000000000000000, -5.249999999999999112, 2.500000000000000000 ) ) ;
#867 = VECTOR ( 'NONE', #944, 1000.000000000000000 ) ;
#868 = CARTESIAN_POINT ( 'NONE',  ( -7.200000000000001954, 1.249999999999999334, 0.6000000000000000888 ) ) ;
#869 = DIRECTION ( 'NONE',  ( -0.0000000000000000000, -0.0000000000000000000, 1.000000000000000000 ) ) ;
#870 = VECTOR ( 'NONE', #787, 1000.000000000000000 ) ;
#871 = CARTESIAN_POINT ( 'NONE',  ( -10.00000000000000178, 4.049999999999999822, 11.20216992495330111 ) ) ;
#872 = ORIENTED_EDGE ( 'NONE', *, *, #61, .T. ) ;
#873 = ORIENTED_EDGE ( 'NONE', *, *, #50, .T. ) ;
#874 = EDGE_CURVE ( 'NONE', #107, #210, #568, .T. ) ;
#875 = CARTESIAN_POINT ( 'NONE',  ( -7.200000000000001954, -1.249999999999999334, 0.6000000000000000888 ) ) ;
#876 = ORIENTED_EDGE ( 'NONE', *, *, #453, .T. ) ;
#877 = EDGE_LOOP ( 'NONE', ( #523, #390, #432, #873 ) ) ;
#878 = AXIS2_PLACEMENT_3D ( 'NONE', #555, #810, #551 ) ;
#879 = ORIENTED_EDGE ( 'NONE', *, *, #377, .T. ) ;
#880 =( NAMED_UNIT ( * ) PLANE_ANGLE_UNIT ( ) SI_UNIT ( $, .RADIAN. ) );
#881 = CYLINDRICAL_SURFACE ( 'NONE', #969, 7.000000000000000888 ) ;
#882 = LINE ( 'NONE', #670, #681 ) ;
#883 = CARTESIAN_POINT ( 'NONE',  ( -3.000000000000000888, -1.819535758525432752E-15, 2.999999999999999112 ) ) ;
#884 = DIRECTION ( 'NONE',  ( -1.000000000000000000, 0.0000000000000000000, 0.0000000000000000000 ) ) ;
#885 =( LENGTH_UNIT ( ) NAMED_UNIT ( * ) SI_UNIT ( .MILLI., .METRE. ) );
#886 = CARTESIAN_POINT ( 'NONE',  ( -3.000000000000000000, 5.249999999999999112, 2.500000000000000000 ) ) ;
#887 = ADVANCED_FACE ( 'NONE', ( #76 ), #693, .F. ) ;
#888 = AXIS2_PLACEMENT_3D ( 'NONE', #79, #793, #884 ) ;
#889 = FILL_AREA_STYLE ('',( #712 ) ) ;
#890 = FILL_AREA_STYLE_COLOUR ( '', #595 ) ;
#891 = VECTOR ( 'NONE', #734, 1000.000000000000000 ) ;
#892 = CARTESIAN_POINT ( 'NONE',  ( 3.000000000000000000, 0.0000000000000000000, 2.500000000000000000 ) ) ;
#893 = ORIENTED_EDGE ( 'NONE', *, *, #350, .F. ) ;
#894 = CARTESIAN_POINT ( 'NONE',  ( -9.700000000000002842, -3.750000000000000000, 0.6000000000000000888 ) ) ;
#895 = ORIENTED_EDGE ( 'NONE', *, *, #50, .F. ) ;
#896 = EDGE_CURVE ( 'NONE', #730, #674, #1058, .T. ) ;
#897 = FILL_AREA_STYLE ('',( #169 ) ) ;
#898 = CARTESIAN_POINT ( 'NONE',  ( -9.700000000000002842, 1.249999999999999334, 0.8000000000000000444 ) ) ;
#899 = DIRECTION ( 'NONE',  ( 1.000000000000000000, 0.0000000000000000000, -0.0000000000000000000 ) ) ;
#900 = LINE ( 'NONE', #931, #635 ) ;
#901 = CARTESIAN_POINT ( 'NONE',  ( 2.999999999999998668, 7.000000000000000000, 2.999999999999999112 ) ) ;
#902 = EDGE_CURVE ( 'NONE', #327, #184, #481, .T. ) ;
#903 = DIRECTION ( 'NONE',  ( 0.0000000000000000000, 0.0000000000000000000, 1.000000000000000000 ) ) ;
#904 = DIRECTION ( 'NONE',  ( -0.0000000000000000000, -0.0000000000000000000, -1.000000000000000000 ) ) ;
#905 = DIRECTION ( 'NONE',  ( 1.000000000000000000, 0.0000000000000000000, 0.0000000000000000000 ) ) ;
#906 = PLANE ( 'NONE',  #878 ) ;
#907 = ORIENTED_EDGE ( 'NONE', *, *, #285, .T. ) ;
#908 = ORIENTED_EDGE ( 'NONE', *, *, #1032, .T. ) ;
#909 =( NAMED_UNIT ( * ) SI_UNIT ( $, .STERADIAN. ) SOLID_ANGLE_UNIT ( ) );
#910 = ORIENTED_EDGE ( 'NONE', *, *, #474, .T. ) ;
#911 = CARTESIAN_POINT ( 'NONE',  ( -10.00000000000000178, -4.049999999999999822, 2.200000000000000622 ) ) ;
#912 = ORIENTED_EDGE ( 'NONE', *, *, #84, .T. ) ;
#913 = FILL_AREA_STYLE ('',( #820 ) ) ;
#914 = DIRECTION ( 'NONE',  ( -0.0000000000000000000, -0.0000000000000000000, 1.000000000000000000 ) ) ;
#915 = FILL_AREA_STYLE_COLOUR ( '', #229 ) ;
#916 = DIRECTION ( 'NONE',  ( -0.0000000000000000000, -0.0000000000000000000, 1.000000000000000000 ) ) ;
#917 = ADVANCED_FACE ( 'NONE', ( #733 ), #244, .F. ) ;
#918 =( NAMED_UNIT ( * ) SI_UNIT ( $, .STERADIAN. ) SOLID_ANGLE_UNIT ( ) );
#919 = EDGE_CURVE ( 'NONE', #489, #674, #1114, .T. ) ;
#920 = MECHANICAL_DESIGN_GEOMETRIC_PRESENTATION_REPRESENTATION (  '', ( #93 ), #1111 ) ;
#921 = ORIENTED_EDGE ( 'NONE', *, *, #667, .F. ) ;
#922 = ADVANCED_FACE ( 'NONE', ( #22 ), #881, .T. ) ;
#923 = ORIENTED_EDGE ( 'NONE', *, *, #1048, .F. ) ;
#924 = FACE_OUTER_BOUND ( 'NONE', #233, .T. ) ;
#925 = CARTESIAN_POINT ( 'NONE',  ( -3.000000000000000444, 6.999999999999998224, 2.999999999999999112 ) ) ;
#926 = AXIS2_PLACEMENT_3D ( 'NONE', #268, #452, #1052 ) ;
#927 = SURFACE_STYLE_FILL_AREA ( #821 ) ;
#928 = FILL_AREA_STYLE_COLOUR ( '', #152 ) ;
#929 = ORIENTED_EDGE ( 'NONE', *, *, #368, .F. ) ;
#930 = VERTEX_POINT ( 'NONE', #512 ) ;
#931 = CARTESIAN_POINT ( 'NONE',  ( 2.999999999999998668, 7.000000000000000000, 30.41311123146741124 ) ) ;
#932 = PRESENTATION_STYLE_ASSIGNMENT (( #1085 ) ) ;
#933 = EDGE_CURVE ( 'NONE', #43, #1038, #829, .T. ) ;
#934 = UNCERTAINTY_MEASURE_WITH_UNIT (LENGTH_MEASURE( 1.000000000000000082E-05 ), #762, 'distance_accuracy_value', 'NONE');
#935 = AXIS2_PLACEMENT_3D ( 'NONE', #608, #95, #170 ) ;
#936 = DIRECTION ( 'NONE',  ( 1.000000000000000000, 0.0000000000000000000, -0.0000000000000000000 ) ) ;
#937 = VECTOR ( 'NONE', #598, 1000.000000000000000 ) ;
#938 = CARTESIAN_POINT ( 'NONE',  ( -7.200000000000001954, -1.249999999999999334, 0.6000000000000000888 ) ) ;
#939 = CARTESIAN_POINT ( 'NONE',  ( 3.000000000000000888, 1.775737858763662409E-15, 30.41311123146741124 ) ) ;
#940 = STYLED_ITEM ( 'NONE', ( #14 ), #397 ) ;
#941 = ORIENTED_EDGE ( 'NONE', *, *, #1024, .T. ) ;
#942 = ORIENTED_EDGE ( 'NONE', *, *, #7, .T. ) ;
#943 = DIRECTION ( 'NONE',  ( -0.0000000000000000000, -0.0000000000000000000, 1.000000000000000000 ) ) ;
#944 = DIRECTION ( 'NONE',  ( -1.000000000000000000, 0.0000000000000000000, 0.0000000000000000000 ) ) ;
#945 = DIRECTION ( 'NONE',  ( -1.000000000000000000, 0.0000000000000000000, 0.0000000000000000000 ) ) ;
#946 = EDGE_CURVE ( 'NONE', #1106, #236, #799, .T. ) ;
#947 = FACE_BOUND ( 'NONE', #554, .T. ) ;
#948 = PLANE ( 'NONE',  #52 ) ;
#949 = PLANE ( 'NONE',  #401 ) ;
#950 =( NAMED_UNIT ( * ) PLANE_ANGLE_UNIT ( ) SI_UNIT ( $, .RADIAN. ) );
#951 = LINE ( 'NONE', #81, #723 ) ;
#952 = EDGE_CURVE ( 'NONE', #765, #459, #214, .T. ) ;
#953 = CARTESIAN_POINT ( 'NONE',  ( 2.999999999999999112, -5.249999999999999112, 3.000000000000000000 ) ) ;
#954 = UNCERTAINTY_MEASURE_WITH_UNIT (LENGTH_MEASURE( 1.000000000000000082E-05 ), #463, 'distance_accuracy_value', 'NONE');
#955 = EDGE_LOOP ( 'NONE', ( #414, #445, #539, #263 ) ) ;
#956 = EDGE_LOOP ( 'NONE', ( #122, #166, #359, #740, #514 ) ) ;
#957 = ORIENTED_EDGE ( 'NONE', *, *, #684, .F. ) ;
#958 = DIRECTION ( 'NONE',  ( -0.0000000000000000000, -0.0000000000000000000, -1.000000000000000000 ) ) ;
#959 = PRESENTATION_STYLE_ASSIGNMENT (( #468 ) ) ;
#960 = LINE ( 'NONE', #871, #802 ) ;
#961 = DIRECTION ( 'NONE',  ( -0.0000000000000000000, -0.0000000000000000000, 1.000000000000000000 ) ) ;
#962 = PRESENTATION_LAYER_ASSIGNMENT (  '', '', ( #465 ) ) ;
#963 =( NAMED_UNIT ( * ) SI_UNIT ( $, .STERADIAN. ) SOLID_ANGLE_UNIT ( ) );
#964 = DIRECTION ( 'NONE',  ( 0.0000000000000000000, 0.0000000000000000000, 1.000000000000000000 ) ) ;
#965 = CARTESIAN_POINT ( 'NONE',  ( 3.000000000000000000, 0.0000000000000000000, 2.500000000000000000 ) ) ;
#966 = CARTESIAN_POINT ( 'NONE',  ( -7.200000000000001954, -3.750000000000000000, 0.6000000000000000888 ) ) ;
#967 = EDGE_CURVE ( 'NONE', #147, #566, #188, .T. ) ;
#968 = EDGE_LOOP ( 'NONE', ( #378, #515, #374, #1105, #1037 ) ) ;
#969 = AXIS2_PLACEMENT_3D ( 'NONE', #695, #958, #855 ) ;
#970 =( LENGTH_UNIT ( ) NAMED_UNIT ( * ) SI_UNIT ( .MILLI., .METRE. ) );
#971 = ADVANCED_FACE ( 'NONE', ( #744 ), #948, .F. ) ;
#972 = LINE ( 'NONE', #534, #250 ) ;
#973 = CARTESIAN_POINT ( 'NONE',  ( -5.299999999999999822, 0.0000000000000000000, 0.0000000000000000000 ) ) ;
#974 = CARTESIAN_POINT ( 'NONE',  ( 8.250000000000000000, 0.0000000000000000000, 3.000000000000000000 ) ) ;
#975 = CARTESIAN_POINT ( 'NONE',  ( -7.200000000000001954, -1.249999999999999334, 0.6000000000000000888 ) ) ;
#976 = AXIS2_PLACEMENT_3D ( 'NONE', #769, #438, #775 ) ;
#977 = LINE ( 'NONE', #303, #64 ) ;
#978 = ADVANCED_FACE ( 'NONE', ( #652 ), #372, .F. ) ;
#979 = APPLICATION_CONTEXT ( 'automotive_design' ) ;
#980 = LINE ( 'NONE', #641, #751 ) ;
#981 = ORIENTED_EDGE ( 'NONE', *, *, #707, .F. ) ;
#982 = CARTESIAN_POINT ( 'NONE',  ( -10.00000000000000178, 4.049999999999999822, 2.200000000000000622 ) ) ;
#983 = ORIENTED_EDGE ( 'NONE', *, *, #853, .F. ) ;
#984 = AXIS2_PLACEMENT_3D ( 'NONE', #201, #808, #638 ) ;
#985 = ORIENTED_EDGE ( 'NONE', *, *, #213, .T. ) ;
#986 = DIRECTION ( 'NONE',  ( -1.000000000000000000, 0.0000000000000000000, 0.0000000000000000000 ) ) ;
#987 = CIRCLE ( 'NONE', #844, 7.000000000000000888 ) ;
#988 = DIRECTION ( 'NONE',  ( -1.000000000000000000, 0.0000000000000000000, 0.0000000000000000000 ) ) ;
#989 = CARTESIAN_POINT ( 'NONE',  ( -7.200000000000001954, 1.249999999999999334, 0.6000000000000000888 ) ) ;
#990 = EDGE_CURVE ( 'NONE', #648, #245, #282, .T. ) ;
#991 = SURFACE_SIDE_STYLE ('',( #199 ) ) ;
#992 = SURFACE_SIDE_STYLE ('',( #927 ) ) ;
#993 = AXIS2_PLACEMENT_3D ( 'NONE', #423, #439, #520 ) ;
#994 = DIRECTION ( 'NONE',  ( -0.0000000000000000000, 1.000000000000000000, -0.0000000000000000000 ) ) ;
#995 = SURFACE_SIDE_STYLE ('',( #749 ) ) ;
#996 = VECTOR ( 'NONE', #653, 1000.000000000000000 ) ;
#997 =( LENGTH_UNIT ( ) NAMED_UNIT ( * ) SI_UNIT ( .MILLI., .METRE. ) );
#998 = ORIENTED_EDGE ( 'NONE', *, *, #495, .T. ) ;
#999 = ORIENTED_EDGE ( 'NONE', *, *, #285, .F. ) ;
#1000 =( NAMED_UNIT ( * ) PLANE_ANGLE_UNIT ( ) SI_UNIT ( $, .RADIAN. ) );
#1001 = PRESENTATION_LAYER_ASSIGNMENT (  '', '', ( #940 ) ) ;
#1002 = PRESENTATION_STYLE_ASSIGNMENT (( #531 ) ) ;
#1003 = VECTOR ( 'NONE', #593, 1000.000000000000000 ) ;
#1004 = CARTESIAN_POINT ( 'NONE',  ( 0.0000000000000000000, 0.0000000000000000000, 0.8000000000000000444 ) ) ;
#1005 = UNCERTAINTY_MEASURE_WITH_UNIT (LENGTH_MEASURE( 1.000000000000000082E-05 ), #640, 'distance_accuracy_value', 'NONE');
#1006 =( LENGTH_UNIT ( ) NAMED_UNIT ( * ) SI_UNIT ( .MILLI., .METRE. ) );
#1007 = CARTESIAN_POINT ( 'NONE',  ( -8.709422037299397346, 4.049999999999999822, 2.200000000000000622 ) ) ;
#1008 = EDGE_CURVE ( 'NONE', #767, #1035, #1025, .T. ) ;
#1009 = LINE ( 'NONE', #574, #182 ) ;
#1010 = DIRECTION ( 'NONE',  ( 0.0000000000000000000, 0.0000000000000000000, 1.000000000000000000 ) ) ;
#1011 = EDGE_LOOP ( 'NONE', ( #553, #851, #942, #195 ) ) ;
#1012 = DIRECTION ( 'NONE',  ( 0.0000000000000000000, 0.0000000000000000000, -1.000000000000000000 ) ) ;
#1013 = ORIENTED_EDGE ( 'NONE', *, *, #434, .F. ) ;
#1014 = ORIENTED_EDGE ( 'NONE', *, *, #410, .T. ) ;
#1015 = EDGE_LOOP ( 'NONE', ( #6, #617, #840, #1022 ) ) ;
#1016 = CARTESIAN_POINT ( 'NONE',  ( 0.0000000000000000000, 0.0000000000000000000, 0.0000000000000000000 ) ) ;
#1017 = UNCERTAINTY_MEASURE_WITH_UNIT (LENGTH_MEASURE( 1.000000000000000082E-05 ), #8, 'distance_accuracy_value', 'NONE');
#1018 = FACE_OUTER_BOUND ( 'NONE', #196, .T. ) ;
#1019 = STYLED_ITEM ( 'NONE', ( #33 ), #722 ) ;
#1020 = LINE ( 'NONE', #363, #209 ) ;
#1021 = DIRECTION ( 'NONE',  ( 1.000000000000000000, 0.0000000000000000000, -0.0000000000000000000 ) ) ;
#1022 = ORIENTED_EDGE ( 'NONE', *, *, #902, .T. ) ;
#1023 = DIRECTION ( 'NONE',  ( -0.0000000000000000000, 1.000000000000000000, 0.0000000000000000000 ) ) ;
#1024 = EDGE_CURVE ( 'NONE', #1104, #59, #149, .T. ) ;
#1025 = CIRCLE ( 'NONE', #291, 5.299999999999999822 ) ;
#1026 = SURFACE_STYLE_FILL_AREA ( #736 ) ;
#1027 = CARTESIAN_POINT ( 'NONE',  ( 3.000000000000000888, 1.775737858763662409E-15, 0.8000000000000000444 ) ) ;
#1028 = DIRECTION ( 'NONE',  ( 0.0000000000000000000, 0.0000000000000000000, 1.000000000000000000 ) ) ;
#1029 = DIRECTION ( 'NONE',  ( 1.000000000000000000, 0.0000000000000000000, 0.0000000000000000000 ) ) ;
#1030 = CARTESIAN_POINT ( 'NONE',  ( -10.00000000000000178, -4.049999999999999822, 11.20216992495330111 ) ) ;
#1031 = CYLINDRICAL_SURFACE ( 'NONE', #888, 5.299999999999999822 ) ;
#1032 = EDGE_CURVE ( 'NONE', #184, #327, #709, .T. ) ;
#1033 = ADVANCED_FACE ( 'NONE', ( #393 ), #1055, .T. ) ;
#1034 = PRESENTATION_LAYER_ASSIGNMENT (  '', '', ( #1019 ) ) ;
#1035 = VERTEX_POINT ( 'NONE', #1057 ) ;
#1036 = ORIENTED_EDGE ( 'NONE', *, *, #174, .T. ) ;
#1037 = ORIENTED_EDGE ( 'NONE', *, *, #896, .F. ) ;
#1038 = VERTEX_POINT ( 'NONE', #357 ) ;
#1039 = DIRECTION ( 'NONE',  ( 1.000000000000000000, 0.0000000000000000000, 0.0000000000000000000 ) ) ;
#1040 = DIRECTION ( 'NONE',  ( 1.000000000000000000, -0.0000000000000000000, -0.0000000000000000000 ) ) ;
#1041 = CARTESIAN_POINT ( 'NONE',  ( -7.200000000000001954, -1.249999999999999334, 0.6000000000000000888 ) ) ;
#1042 = FACE_OUTER_BOUND ( 'NONE', #877, .T. ) ;
#1043 = VECTOR ( 'NONE', #856, 1000.000000000000000 ) ;
#1044 = VECTOR ( 'NONE', #46, 1000.000000000000000 ) ;
#1045 = COLOUR_RGB ( '',0.8823529411764705621, 0.9176470588235293713, 0.4901960784313725283 ) ;
#1046 = LINE ( 'NONE', #1084, #16 ) ;
#1047 = DIRECTION ( 'NONE',  ( 0.0000000000000000000, 0.0000000000000000000, 1.000000000000000000 ) ) ;
#1048 = EDGE_CURVE ( 'NONE', #767, #327, #621, .T. ) ;
#1049 = CARTESIAN_POINT ( 'NONE',  ( -10.00000000000000178, 4.049999999999999822, 0.8000000000000000444 ) ) ;
#1050 = PRESENTATION_LAYER_ASSIGNMENT (  '', '', ( #93 ) ) ;
#1051 = ORIENTED_EDGE ( 'NONE', *, *, #15, .F. ) ;
#1052 = DIRECTION ( 'NONE',  ( 1.000000000000000000, 0.0000000000000000000, -0.0000000000000000000 ) ) ;
#1053 = ORIENTED_EDGE ( 'NONE', *, *, #32, .F. ) ;
#1054 = DIRECTION ( 'NONE',  ( -1.000000000000000000, 0.0000000000000000000, -0.0000000000000000000 ) ) ;
#1055 = PLANE ( 'NONE',  #609 ) ;
#1056 = ORIENTED_EDGE ( 'NONE', *, *, #819, .T. ) ;
#1057 = CARTESIAN_POINT ( 'NONE',  ( 5.299999999999999822, 6.490628035480971924E-16, 0.8000000000000000444 ) ) ;
#1058 = LINE ( 'NONE', #13, #1003 ) ;
#1059 = CARTESIAN_POINT ( 'NONE',  ( 3.000000000000000444, -7.000000000000000000, 2.999999999999999112 ) ) ;
#1060 = VECTOR ( 'NONE', #691, 1000.000000000000000 ) ;
#1061 = VECTOR ( 'NONE', #94, 1000.000000000000000 ) ;
#1062 = DIRECTION ( 'NONE',  ( 0.0000000000000000000, 0.0000000000000000000, 1.000000000000000000 ) ) ;
#1063 = DIRECTION ( 'NONE',  ( 1.000000000000000000, 0.0000000000000000000, -0.0000000000000000000 ) ) ;
#1064 = DIRECTION ( 'NONE',  ( -1.000000000000000000, -1.445602896647339410E-16, 0.0000000000000000000 ) ) ;
#1065 = FACE_OUTER_BOUND ( 'NONE', #388, .T. ) ;
#1066 = AXIS2_PLACEMENT_3D ( 'NONE', #637, #725, #812 ) ;
#1067 = EDGE_LOOP ( 'NONE', ( #706, #105, #314, #998 ) ) ;
#1068 = ORIENTED_EDGE ( 'NONE', *, *, #759, .T. ) ;
#1069 = DIRECTION ( 'NONE',  ( -1.000000000000000000, 0.0000000000000000000, 0.0000000000000000000 ) ) ;
#1070 = DIRECTION ( 'NONE',  ( 0.0000000000000000000, 0.0000000000000000000, 1.000000000000000000 ) ) ;
#1071 = LINE ( 'NONE', #1041, #583 ) ;
#1072 = ADVANCED_FACE ( 'NONE', ( #1042 ), #801, .F. ) ;
#1073 = DIRECTION ( 'NONE',  ( -0.0000000000000000000, -0.0000000000000000000, 1.000000000000000000 ) ) ;
#1074 =( NAMED_UNIT ( * ) SI_UNIT ( $, .STERADIAN. ) SOLID_ANGLE_UNIT ( ) );
#1075 = AXIS2_PLACEMENT_3D ( 'NONE', #778, #82, #253 ) ;
#1076 = LINE ( 'NONE', #868, #12 ) ;
#1077 = SURFACE_STYLE_FILL_AREA ( #1093 ) ;
#1078 = CARTESIAN_POINT ( 'NONE',  ( -3.000000000000000444, 6.999999999999998224, 0.8000000000000000444 ) ) ;
#1079 = LINE ( 'NONE', #546, #443 ) ;
#1080 = ADVANCED_FACE ( 'NONE', ( #480 ), #679, .T. ) ;
#1081 = CARTESIAN_POINT ( 'NONE',  ( -3.000000000000000000, 0.0000000000000000000, 2.500000000000000000 ) ) ;
#1082 = ORIENTED_EDGE ( 'NONE', *, *, #967, .F. ) ;
#1083 = ORIENTED_EDGE ( 'NONE', *, *, #584, .F. ) ;
#1084 = CARTESIAN_POINT ( 'NONE',  ( -9.700000000000002842, 3.750000000000000000, 0.6000000000000000888 ) ) ;
#1085 = SURFACE_STYLE_USAGE ( .BOTH. , #991 ) ;
#1086 = VERTEX_POINT ( 'NONE', #728 ) ;
#1087 = AXIS2_PLACEMENT_3D ( 'NONE', #939, #165, #945 ) ;
#1088 = ORIENTED_EDGE ( 'NONE', *, *, #26, .T. ) ;
#1089 = PRESENTATION_STYLE_ASSIGNMENT (( #180 ) ) ;
#1090 = EDGE_CURVE ( 'NONE', #1106, #361, #987, .T. ) ;
#1091 = UNCERTAINTY_MEASURE_WITH_UNIT (LENGTH_MEASURE( 1.000000000000000082E-05 ), #970, 'distance_accuracy_value', 'NONE');
#1092 = VECTOR ( 'NONE', #625, 1000.000000000000000 ) ;
#1093 = FILL_AREA_STYLE ('',( #564 ) ) ;
#1094 = ORIENTED_EDGE ( 'NONE', *, *, #738, .T. ) ;
#1095 = CLOSED_SHELL ( 'NONE', ( #226, #587, #1080, #713, #204, #816, #704, #917, #922, #1102, #831, #887, #407, #45, #971, #27, #280, #192, #741, #1033, #115, #722, #366, #397, #173, #545, #417, #108, #978, #1097, #1072 ) ) ;
#1096 = STYLED_ITEM ( 'NONE', ( #1089 ), #978 ) ;
#1097 = ADVANCED_FACE ( 'NONE', ( #317 ), #906, .F. ) ;
#1098 = COLOUR_RGB ( '',0.8823529411764705621, 0.9176470588235293713, 0.4901960784313725283 ) ;
#1099 = AXIS2_PLACEMENT_3D ( 'NONE', #138, #904, #986 ) ;
#1100 = LINE ( 'NONE', #982, #818 ) ;
#1101 = LINE ( 'NONE', #809, #644 ) ;
#1102 = ADVANCED_FACE ( 'NONE', ( #502 ), #126, .F. ) ;
#1103 = VERTEX_POINT ( 'NONE', #198 ) ;
#1104 = VERTEX_POINT ( 'NONE', #974 ) ;
#1105 = ORIENTED_EDGE ( 'NONE', *, *, #474, .F. ) ;
#1106 = VERTEX_POINT ( 'NONE', #718 ) ;
#1107 = DIRECTION ( 'NONE',  ( 1.000000000000000000, 0.0000000000000000000, 0.0000000000000000000 ) ) ;
#1108 = APPLICATION_PROTOCOL_DEFINITION ( 'draft international standard', 'automotive_design', 1998, #666 ) ;
#1109 = EDGE_CURVE ( 'NONE', #107, #404, #75, .T. ) ;
#1110 = CARTESIAN_POINT ( 'NONE',  ( -10.00000000000000178, -1.819535758525432752E-15, 2.999999999999999112 ) ) ;
#1111 =( GEOMETRIC_REPRESENTATION_CONTEXT ( 3 ) GLOBAL_UNCERTAINTY_ASSIGNED_CONTEXT ( ( #934 ) ) GLOBAL_UNIT_ASSIGNED_CONTEXT ( ( #762, #589, #758 ) ) REPRESENTATION_CONTEXT ( 'NONE', 'WORKASPACE' ) );
#1112 = COLOUR_RGB ( '',0.8823529411764705621, 0.9176470588235293713, 0.4901960784313725283 ) ;
#1113 = CARTESIAN_POINT ( 'NONE',  ( -2.999999999999998668, -7.000000000000000888, 2.999999999999999112 ) ) ;
#1114 = LINE ( 'NONE', #700, #654 ) ;
#1115 = DIRECTION ( 'NONE',  ( -0.0000000000000000000, 1.000000000000000000, -0.0000000000000000000 ) ) ;
ENDSEC;
END-ISO-10303-21;
